<svg xmlns="http://www.w3.org/2000/svg" viewBox="0 0 137.24 566.06"><title>bouteillesFichier 7</title><g id="Calque_2" data-name="Calque 2"><g id="Calque_2-2" data-name="Calque 2"><g id="bouteille-6"><path d="M135.28,161.71,96,135.18a4.23,4.23,0,0,0-.41-.6V4.47A4.47,4.47,0,0,0,91.13,0h-45a4.47,4.47,0,0,0-4.47,4.47V134.9L2,161.71c-.1.07-.14.19-.23.26A4.57,4.57,0,0,0,.78,163a3.82,3.82,0,0,0-.31.47A4.39,4.39,0,0,0,0,165.42s0,0,0,0v0L3,427a4.6,4.6,0,0,0-.12,1.78c0,.4.1.73.16,1.12L4.5,561.65A4.46,4.46,0,0,0,9,566.06h119.3a4.46,4.46,0,0,0,4.47-4.41l4.5-396.18A4.48,4.48,0,0,0,135.28,161.71ZM125,427.63c-4,30.24-8,46.21-13.69,64.55a40.67,40.67,0,0,1-39.84,23.31H64.11c-16.53.72-31.7-8.28-38.5-22.76-5.82-18.53-9.75-34.33-13.67-63.48L9,169.88H128.25l-2.92,256.7A4.2,4.2,0,0,0,125,427.63ZM50.58,132.92V118.11H86.67v14.81Zm0-27.66H86.67v3.92H50.58Zm36.09-8H50.58V34.6H86.67ZM64.12,8.93H86.67V26.11H50.58V8.93ZM47.64,141.64h42L118.18,161H19.07ZM76.5,557.13H13.39l-.88-77.41c1.46,5.39,3,10.68,4.79,16.24a49.15,49.15,0,0,0,44.62,28.58c1.11,0,2.22,0,3.32-.12H71.4c1,.07,2.08.11,3.12.11,19.28,0,36.65-11,45.08-29.13,1.9-6,3.58-11.83,5.15-17.83l-.9,79.56Z"/><path d="M111.39,226.23H27a4.46,4.46,0,0,0-4.47,4.47v75.41A4.46,4.46,0,0,0,27,310.57h84.41a4.46,4.46,0,0,0,4.47-4.46V230.7A4.46,4.46,0,0,0,111.39,226.23Zm-4.47,75.41H31.44V235.16h75.48Z"/></g></g></g></svg>