<?xml version="1.0" encoding="utf-8"?>
<!-- Generator: Adobe Illustrator 23.0.3, SVG Export Plug-In . SVG Version: 6.00 Build 0)  -->
<svg version="1.1" id="Calque_1" xmlns="http://www.w3.org/2000/svg" xmlns:xlink="http://www.w3.org/1999/xlink" x="0px" y="0px"
	 viewBox="0 0 199.8 568.2" style="enable-background:new 0 0 199.8 568.2;" xml:space="preserve">
<style type="text/css">
	.st0{fill:#357B3F;}
</style>
<title>bouteillesFichier 10</title>
<g>
	<g id="Calque_2-2">
		<g id="bouteille-9">
			<path class="st0" d="M194.5,363.6c-5.1-25.3-4.5-50.4-3.9-74.6c0.3-12,0.6-24.5,0.1-36.4c0-18.7-6.7-35.4-20.8-51.3l-32-32V5.2
				c0-2.9-2.3-5.2-5.2-5.2h-32.2c-0.2,0-0.4,0.1-0.6,0.1c-0.2,0-0.4-0.1-0.6-0.1H67.1c-2.9,0-5.2,2.3-5.2,5.2v164l-32.2,32.2
				c-13.9,15.7-20.7,32.4-20.6,50.9C8.7,264.5,9,276.9,9.2,289c0.6,24.3,1.1,49.4-4,74.9c-6.6,46.9-7,97.6-1.3,159.8
				c3,26.3,14.6,38.3,42.8,44.4c0.4,0.1,0.7,0.1,1.1,0.1H152c0.4,0,0.7,0,1.1-0.1c28.2-6,39.8-18.1,42.7-44.5
				C201.6,461.5,201.1,410.8,194.5,363.6z M72.3,10.4h27c0.2,0,0.4-0.1,0.6-0.1c0.2,0.1,0.4,0.1,0.6,0.1h27v12.8H72.3V10.4z
				 M72.3,33.6h55.2v7.7H72.3V33.6z M112.2,54.2v27H86.5v-27H112.2z M76.1,51.6v34.8c0,2.9,2.3,5.2,5.2,5.2c0,0,0,0,0,0h36.1
				c2.9,0,5.2-2.3,5.2-5.2c0,0,0,0,0,0V51.6h5v112.3H72.3V51.6H76.1z M151.5,557.8H48.3c-3.6-0.8-7.2-1.8-10.7-3
				c45.3-16.5,86.2-16.5,124.5,0C158.7,556,155.1,557,151.5,557.8L151.5,557.8z M185.5,522.5c-1.4,12.5-4.8,20.5-11.7,26.1
				c-0.2-0.2-0.4-0.3-0.6-0.4c-44.7-21.6-94.3-21.6-147.6-0.1c-0.1,0-0.1,0.1-0.2,0.1c-6.6-5.6-9.8-13.4-11.2-25.6
				c-5.6-61.2-5.2-111.2,1.2-157c5.3-26.4,4.7-52.1,4.1-76.9c-0.3-12.5-0.6-24.2-0.1-36.2c0-8.6,1.8-17,5.4-24.8
				c12.3,17.1,43.9,19,64.4,19c3.5,0,6.6-0.1,9.3-0.1l4.6-0.1c2.9,0,5.2-2.3,5.2-5.2s-2.3-5.2-5.2-5.2l0,0l-4.8,0.1
				c-16.8,0.3-61.3,1.1-67.5-19.4c1.9-2.9,4.1-5.7,6.3-8.4L70.8,175c0.5-0.5,0.8-1,1.1-1.7h56.1c0.3,0.6,0.6,1.2,1.1,1.7l33.3,33.3
				c3,3.3,5.7,6.9,8.1,10.7c-4.5,8.9-16.3,14.6-32.3,15.5c-2.9,0.2-5,2.6-4.9,5.5c0.2,2.7,2.4,4.8,5.1,4.9h0.3
				c16.8-0.9,29.7-6.4,37.2-15.3c3,7.4,4.5,15.3,4.5,23.2c0.4,11.8,0.1,23.6-0.1,36c-0.6,24.8-1.2,50.5,4,76.6
				C190.7,411.4,191.1,461.4,185.5,522.5L185.5,522.5z"/>
			<path class="st0" d="M166.3,439.3H31c-2.9-0.1-5.3,2.1-5.4,5c-0.1,2.9,2.1,5.3,5,5.4c0.2,0,0.3,0,0.5,0h135.3
				c2.9,0.1,5.3-2.1,5.4-5s-2.1-5.3-5-5.4C166.6,439.3,166.5,439.3,166.3,439.3z"/>
			<path class="st0" d="M32.3,431.6h130.1c2.9,0,5.2-2.3,5.2-5.2l0,0v-28.3c0-2.9-2.3-5.2-5.2-5.2l0,0H32.3c-2.9,0-5.2,2.3-5.2,5.2
				c0,0,0,0,0,0v28.3C27.1,429.3,29.5,431.6,32.3,431.6C32.3,431.6,32.3,431.6,32.3,431.6z M37.5,403.3h119.7v18H37.5V403.3z"/>
			<path class="st0" d="M78.7,345.3h41.2c2.9,0,5.2-2.3,5.2-5.2c0,0,0,0,0,0v-29.6c0-2.9-2.3-5.2-5.2-5.2c0,0,0,0,0,0H78.7
				c-2.9,0-5.2,2.3-5.2,5.2l0,0v29.6C73.5,343,75.8,345.3,78.7,345.3z M83.9,315.7h30.8V335H83.9L83.9,315.7z"/>
		</g>
	</g>
</g>
</svg>
