<?xml version="1.0" encoding="utf-8"?>
<!-- Generator: Adobe Illustrator 23.0.3, SVG Export Plug-In . SVG Version: 6.00 Build 0)  -->
<svg version="1.1" id="Calque_1" xmlns="http://www.w3.org/2000/svg" xmlns:xlink="http://www.w3.org/1999/xlink" x="0px" y="0px"
	 viewBox="0 0 168.6 564.1" style="enable-background:new 0 0 168.6 564.1;" xml:space="preserve">
<style type="text/css">
	.st0{fill:#357B3F;}
</style>
<title>bouteillesFichier 5</title>
<g>
	<g id="Calque_2-2">
		<g id="bouteille-4">
			<path class="st0" d="M168.6,386c0-0.3-0.1-0.6-0.2-0.8v-38.9c0-12.7-1.8-25.4-5.4-37.5l-35.2-119.2
				c-9.5-32.1-14.3-65.4-14.3-98.9v-14c2.6-1.2,4.7-3.3,5.9-5.9c1.6-3.4,2.2-7.3,1.6-11c-1-7.3-5.3-12.5-10.9-13.9V12
				C109.7,1.3,94.3,0.2,85.7,0h-0.1h-2.8h-0.1c-8.6,0.2-23.9,1.4-24.4,12.2v33.5c-2.4,0.6-4.6,1.9-6.3,3.8
				c-2.5,2.8-4.1,6.4-4.6,10.1c-1.1,7.7,2,14.3,7.5,16.9v14.1c0,33.5-4.8,66.8-14.3,98.9L5.4,308.7C1.8,320.9,0,333.5,0,346.2v195.7
				c0.6,21.7,41.1,21.9,80.4,22.1c0.1,0,0.1,0,0.2,0l0,0h2.8h2.8l0,0c0.1,0,0.1,0,0.2,0c40.1-0.2,81.5-0.5,82.1-22.2v-155
				C168.5,386.5,168.5,386.3,168.6,386z M8.7,390.5h151v132.2H8.7V390.5z M90.9,243.7c-0.2,0.1-0.4,0.2-0.6,0.3
				c-2,0.6-4,0.9-6.1,0.9c-12.5,0.2-22.8-9.8-23-22.3c-0.2-12.5,9.8-22.8,22.3-23c12.5-0.2,22.8,9.8,23,22.3
				c0.2,9.7-5.9,18.4-15,21.7L90.9,243.7z M47.3,197.4l16.1,2.4c-11.3,10.1-13.5,26.9-5.2,39.6l-21.8-4.9L47.3,197.4z M106.4,201.1
				l15.1-2.4l10.9,36.9l-22.6,4.4C118.1,227.9,116.7,211.6,106.4,201.1L106.4,201.1z M84.2,8.7c14.1,0.2,17.2,2.9,17.2,3.5v33.2H67
				v-33C67,11.6,70.2,8.9,84.2,8.7z M56,60.8c0.2-2,1-3.9,2.3-5.4c0.9-1.1,2.3-1.6,3.7-1.4c0.1,0,0.2,0,0.3,0s0.2,0.1,0.3,0.1h43.2
				c0.1,0,0.2,0,0.3-0.1s0.2,0,0.3,0c1.4-0.2,2.8,0.3,3.7,1.4c1.3,1.5,2.1,3.4,2.3,5.4c0.4,2.6,0,7.5-3.8,8.1H59.8
				C56,68.3,55.6,63.4,56,60.8z M63.6,90.5V77.6h41.2v12.9c0,33.9,4.8,67.6,14.3,100.1l-22.7,3.6c-6.5-2.9-13.8-3.3-20.6-1.3
				c-0.1,0-0.2-0.1-0.3-0.1L49.7,189C58.9,157,63.6,123.8,63.6,90.5z M13.8,311.2l20.2-68.3l40.1,9c0.1,0,0.3,0,0.4,0
				c5.5,2,11.5,2.3,17.2,0.8c0.1,0,0.1,0,0.2,0c0.3,0,0.6,0,0.9-0.1l42.3-8.2l19.7,66.8c3.4,11.4,5.1,23.2,5.1,35.1v35.2H8.7v-35.2
				C8.7,334.4,10.4,322.6,13.8,311.2z M86.2,555.3h-2.8h-2.8c-30.2-0.2-71.5-0.4-71.9-13.5v-10h151v9.9
				C159.4,554.9,115.3,555.2,86.2,555.3z"/>
			<path class="st0" d="M30.7,431.4h103.1c2.5-0.2,4.3-2.4,4.1-4.9c-0.2-2.2-1.9-3.9-4.1-4.1H30.7c-2.5-0.2-4.7,1.6-4.9,4.1
				c-0.2,2.5,1.6,4.7,4.1,4.9C30.1,431.5,30.4,431.5,30.7,431.4z"/>
			<path class="st0" d="M133.8,448.2H30.7c-2.5,0.2-4.3,2.4-4.1,4.9c0.2,2.2,1.9,3.9,4.1,4.1h103.1c2.5-0.2,4.3-2.4,4.1-4.9
				C137.7,450.1,136,448.4,133.8,448.2z"/>
		</g>
	</g>
</g>
</svg>
