<?xml version="1.0" encoding="utf-8"?>
<!-- Generator: Adobe Illustrator 23.0.3, SVG Export Plug-In . SVG Version: 6.00 Build 0)  -->
<svg version="1.1" id="Calque_1" xmlns="http://www.w3.org/2000/svg" xmlns:xlink="http://www.w3.org/1999/xlink" x="0px" y="0px"
	 viewBox="0 0 168.2 563.7" style="enable-background:new 0 0 168.2 563.7;" xml:space="preserve">
<style type="text/css">
	.st0{fill:#357B3F;}
</style>
<title>bouteillesFichier 6</title>
<g>
	<g id="Calque_2-2">
		<g id="bouteille-5">
			<path class="st0" d="M168.1,513.8c0-0.7-0.1-1.3-0.4-1.9v-266c0-0.1,0-0.1,0-0.2s0-0.1,0-0.2v-3c2.7-35.8-7.8-59.4-31.2-69.9
				c-11.2-5.4-16.9-15.7-17.5-31.3V4.8c0-2.6-2.1-4.8-4.8-4.8c0,0,0,0,0,0H53.8c-2.6,0-4.8,2.1-4.8,4.8v22.5l0,0v113.8
				c-0.5,15.8-6.2,26-17.4,31.4c-23.5,10.6-34,34.1-31.3,69.6v269.8c-0.3,0.6-0.4,1.2-0.4,1.9c0,1.5,0.2,2.9,0.4,4.4v5.1
				c0,11.4,1.1,24.1,9.5,32.1c5.9,5.7,14.5,8.3,26.7,8.3c1.3,0,2.7,0,4.2-0.1h86.4c1.5,0.1,2.9,0.1,4.2,0.1
				c12.3,0,20.9-2.7,26.8-8.3c8.4-8,9.5-20.7,9.5-32.1v-5.1C168,516.7,168.1,515.2,168.1,513.8z M95,535.9H32.7
				C18,535.3,11.5,527,10,518.1V366.7h148.2v151.4c-1.5,8.9-8,17.3-22.5,17.8H95z M158.2,357.1H10V250.4h148.2L158.2,357.1z
				 M121.4,173.1l-7.6-2.3c-1.7-0.7-6.9-2.8-5.7-16.9v-50.6h1.5v38.1C110,155,114,165.5,121.4,173.1L121.4,173.1z M98.5,134.9H69.7
				v-31.6h28.8L98.5,134.9z M79.5,32.1h30v29.2H58.6V32.1H79.5z M58.6,70.9h50.9v22.9H58.6V70.9z M82.3,9.6h27.2v13H58.6v-13
				L82.3,9.6z M58.6,141.2v-37.9h1.5v51c1.1,13.7-4.1,15.9-5.3,16.4l-8,2.4C54.2,165.5,58.2,154.9,58.6,141.2z M22.8,190.2
				c0.3,0,0.6-0.1,0.8-0.1L58,179.6c8.9-3.6,12.8-12.4,11.7-25.8v-9.5h28.8v9.1c-1.1,13.7,2.8,22.5,12.1,26.3l34,10.3
				c0.3,0.1,0.6,0.1,0.9,0.1c10.2,10.7,14.4,27.4,12.8,50.6H9.9C8.3,217.6,12.5,200.9,22.8,190.2L22.8,190.2z M127.4,554H40.6
				c-11.7,0.5-19.5-1.3-24-5.6c-2.5-2.4-4.1-5.8-5.2-10.4c6.1,4.7,13.5,7.2,21.1,7.3h103.3c7.6-0.1,15-2.7,21-7.3
				c-1.1,4.6-2.7,8-5.2,10.3C147.1,552.8,139.2,554.6,127.4,554z"/>
		</g>
	</g>
</g>
</svg>
