<?xml version="1.0" encoding="utf-8"?>
<!-- Generator: Adobe Illustrator 23.0.3, SVG Export Plug-In . SVG Version: 6.00 Build 0)  -->
<svg version="1.1" id="Calque_1" xmlns="http://www.w3.org/2000/svg" xmlns:xlink="http://www.w3.org/1999/xlink" x="0px" y="0px"
	 viewBox="0 0 150.9 564.3" style="enable-background:new 0 0 150.9 564.3;" xml:space="preserve">
<style type="text/css">
	.st0{fill:#357B3F;}
</style>
<title>bouteillesFichier 3</title>
<g>
	<g id="Calque_2-2">
		<g id="bouteille-2">
			<path class="st0" d="M147.1,522.9c-2.6-0.6-8.1-1.8-5.8-14.2c0.5-2.4-1-4.8-3.4-5.5c-2.9-0.8-5.8-2.3-4.4-11.2v-15.7
				c0,0,0-0.1,0-0.1v-13.1l11-141.8c3.6-24.7,5.6-46.5,6-65.3c0.3-0.6,0.4-1.3,0.3-2c-0.1-0.9-0.2-1.6-0.3-2.5
				c0.3-38.3-6.3-64.1-20.1-78c-16.9-16.2-19.8-32.5-19.8-62.9V4.8c0-2.6-2.1-4.8-4.7-4.8H45c-2.6,0-4.8,2.1-4.8,4.8v105.8
				c-0.1,30.4-3,46.7-19.9,63C-0.5,194.6-5.1,243,6.3,321l11,141.8v13.3c0,0,0,0.1,0,0.1s0,0.2,0,0.4v16.2c1.5,8.8-2.2,9.8-4.4,10.4
				c-2.4,0.7-3.9,3-3.4,5.5c2.3,12.4-3.2,13.6-5.8,14.2c-2.2,0.5-3.7,2.5-3.6,4.7v15.8c0,0.4,0,0.7,0.1,1.1
				c3,13.2,10,19.9,20.8,19.9h109c10.8,0,17.8-6.7,20.8-19.9c0.1-0.3,0.1-0.7,0.1-1.1v-15.8C150.9,525.3,149.3,523.4,147.1,522.9z
				 M36.8,501.8c4.1,1.8,8.4,3.3,12.8,4.4H24.7c2-3,2.9-6.7,2.6-10.3C30.2,498.3,33.4,500.3,36.8,501.8z M123.6,495.8
				c-0.2,3.7,0.7,7.3,2.7,10.4h-24.7C110.2,504,117.9,500.5,123.6,495.8L123.6,495.8z M19.6,515.8h111.8c0.1,3,0.9,6,2.4,8.6H17.2
				C18.6,521.8,19.5,518.8,19.6,515.8L19.6,515.8z M49.8,108v-5.4h51.3v5.4H49.8z M49.8,90.1h51.3v4.7H49.8V90.1z M101.1,80.5H49.8
				V45.9h51.3V80.5z M70.3,9.5h30.8v26.8H49.8V9.6L70.3,9.5z M15.8,320C5,245.8,8.8,198.8,27,180.4c19.8-19,22.4-39.2,22.7-65h51.4
				c0,2.8,0.1,5.5,0.2,8.1c-0.2,0.4-0.2,0.9-0.3,1.3c0,16.3-7.6,28.5-14.8,31.8c-9,4.1-20.7,0.6-27.2-4.7c-2.1-1.6-5.1-1.2-6.7,0.8
				c-1.6,2-1.3,4.9,0.6,6.6c7,5.5,15.6,8.5,24.5,8.6c4.4,0,8.7-0.9,12.7-2.6c5.3-2.4,10.8-7.9,14.7-15.7c3.1,10.9,8.7,21,18.8,30.7
				c5.8,5.9,10.2,14.7,13,26.3c-8.7-14.4-20.8-24.6-35.3-28.7c-21.9-6.1-60.8-5.8-72,20.9c-1,2.4,0.1,5.2,2.5,6.2s5.2-0.1,6.3-2.5
				c9.3-21.8,44.9-19.8,60.7-15.4c22.9,6.3,39.1,31.6,42,64.7c-0.2,19.4-2.2,42.2-6,68.5l-11,142.5v13.3c0,0,0,0.1,0,0.1
				c0,30.9-97.1,30.9-97.1,0v-13.8L15.8,320z M129.9,554.8H21c-4.2,0-8.9-1.4-11.4-12v-8.9h131.8v8.9
				C138.8,553.3,134.2,554.8,129.9,554.8z"/>
			<path class="st0" d="M72.1,481.5c0.8,0.7,1.9,1,2.9,1.1h0.5c0.2,0,0.5-0.1,0.7-0.1s0.5,0.1,0.7,0.1c0.2,0,0.3,0,0.5,0
				c1.1,0,2.1-0.4,2.9-1.1c34.6-9.1,51.6-77,51.6-207.5c0-2.6-2.1-4.8-4.8-4.8c0,0,0,0,0,0H99.5c-0.4-10.9-3-29-21.4-31.5
				c-0.6-0.1-1.2,0-1.8,0.1c-0.6-0.2-1.2-0.2-1.8-0.1c-18.4,2.5-21,20.7-21.4,31.5H25.3c-2.6,0-4.8,2.1-4.8,4.8c0,0,0,0,0,0
				C20.6,404.5,37.5,472.4,72.1,481.5z M76.2,472.8c-17-3.1-36.1-28.1-43.2-116.6h86.5C112.3,444.7,93.2,469.7,76.2,472.8z
				 M120.2,346.7H32.3c-0.1-1.5-0.2-3.1-0.3-4.7h88.5C120.4,343.6,120.3,345.1,120.2,346.7z M75.7,247.2c0.2,0,0.4-0.1,0.5-0.2
				c0.2,0.1,0.4,0.1,0.5,0.2c11,1.5,13.2,11.8,13.2,26.9c0,2.6,2.1,4.8,4.7,4.8c0,0,0,0,0,0h27.6c-0.1,19.7-0.6,37.6-1.4,53.6H31.5
				c-0.8-16.1-1.3-33.9-1.4-53.6h27.6c2.6,0,4.8-2.1,4.8-4.7c0,0,0,0,0,0C62.5,259,64.7,248.7,75.7,247.2z"/>
			<path class="st0" d="M37.1,304.1c0,2.6,2.1,4.8,4.8,4.8h69.5c2.6,0,4.8-2.1,4.8-4.8c0-2.6-2.1-4.8-4.8-4.8H41.9
				C39.3,299.3,37.1,301.4,37.1,304.1z"/>
		</g>
	</g>
</g>
</svg>
