<?xml version="1.0" encoding="utf-8"?>
<!-- Generator: Adobe Illustrator 23.0.3, SVG Export Plug-In . SVG Version: 6.00 Build 0)  -->
<svg version="1.1" id="Calque_1" xmlns="http://www.w3.org/2000/svg" xmlns:xlink="http://www.w3.org/1999/xlink" x="0px" y="0px"
	 viewBox="0 0 162.3 566.4" style="enable-background:new 0 0 162.3 566.4;" xml:space="preserve">
<style type="text/css">
	.st0{fill:#357B3F;}
</style>
<title>bouteillesFichier 4</title>
<g>
	<g id="Calque_2-2">
		<g id="bouteille-3">
			<path class="st0" d="M161.4,531.9c-2.6-3.4-4.8-7.1-6.7-11c0.3-1,0.2-2.1-0.3-3c-0.4-0.8-1-1.4-1.8-1.8
				c-4.7-12-6.7-26.2-5.9-42.7l0.7-287.5c0-1.4-0.7-2.7-1.8-3.6c-19.3-14.4-31.6-28.5-32.9-53.6l7.4-113.5c0.1-1.1-0.3-2.1-0.9-3
				c-5.1-6.5-15.7-10.3-32.5-11.6c-0.6-0.4-1.3-0.5-2.1-0.4c-1.2,0-2.4,0.1-3.6,0.1s-2.4-0.1-3.6-0.1c-0.7-0.1-1.4,0.1-2,0.4
				C58.7,1.8,48,5.6,43,12.1c-0.7,0.9-1,1.9-0.9,3l7.4,113c-1.3,25.6-13.6,39.7-32.9,54.2c-1.1,0.8-1.8,2.2-1.8,3.6l0.7,287.7
				c0.9,17.9-1.5,33.3-7.3,46c-0.1,0.1-0.2,0.2-0.3,0.3c-0.1,0.2-0.1,0.4-0.2,0.6c-1.9,4-4.2,7.8-6.8,11.4c-1.2,1.6-1.2,3.8,0,5.3
				L14,554.8c3.5,3.2,7.6,5.7,12,7.3c0.1,0.1,0.1,0.3,0.2,0.4c1.2,1.5,3.3,2.1,5,1.3c8.5,2.2,18.2,2.7,29.3,2.7c3.2,0,6.6,0,10-0.1
				c6.8-0.1,14.1-0.1,21,0c14.2,0.2,27.2,0.2,38.2-2.4c0.3,0.1,0.5,0.1,0.8,0.1c1.1,0,2.1-0.5,2.9-1.2c5.7-1.7,11-4.6,15.4-8.7
				l12.5-17C162.6,535.6,162.5,533.4,161.4,531.9z M104.4,121.7H57.9l-0.5-8h47.5L104.4,121.7z M58,130.6h46.2
				c0,0.5,0.1,0.9,0.2,1.4H57.8C57.9,131.5,58,131.1,58,130.6z M81.1,9.1c18.6,0.8,26.7,4.2,30.1,7.4l-5.7,88.3H56.8l-5.7-88.3
				C54.5,13.3,62.5,9.9,81.1,9.1z M56.6,140.9h49c1.7,8.3,4.9,16.2,9.6,23.4c0,0.1-0.1,0.2-0.1,0.3c-2.1,1.9-13.5,5-33.9,5
				s-31.8-3.2-33.9-5c0-0.1-0.1-0.2-0.1-0.3C51.7,157.1,54.9,149.2,56.6,140.9z M41.7,171.5c3.2,2.5,8.1,3.8,12.2,4.7
				c9,1.6,18.1,2.4,27.3,2.3c12.5,0,31.6-1.1,39.3-7.1c5.4,6.2,11.5,11.8,18.1,16.6l-0.7,285.1c-0.9,17,1.2,32,6,44.9l-27.4,13.4
				c-2.4-7.8-3.4-16-2.9-24.2l1.5-278.6c0.2-11.4-3.5-21.5-10.4-28.4c-6.5-6.4-15.3-9.7-24.4-9.2c-0.1,0-0.2,0.1-0.3,0.1
				s-0.2-0.1-0.3-0.1c-9.1-0.5-17.9,2.9-24.4,9.3c-6.9,6.9-10.6,17-10.4,28.4l1.5,278.8c0.5,8.7-0.6,17.5-3.4,25.8L17.6,520
				c5.4-13.3,7.7-28.9,6.8-46.7L23.7,188C30.3,183.2,36.3,177.7,41.7,171.5z M53.9,228.5c-0.2-9,2.6-16.8,7.8-22
				c4.4-4.4,10.3-6.7,17.3-6.7h0.7c0.1,0,0.2-0.1,0.4-0.1s0.2,0.1,0.4,0.1h0.1c7.3,0,13.4,2.2,17.9,6.7c5.2,5.2,7.9,13,7.8,22
				L104.7,507c-0.5,9,0.6,18.1,3.2,26.7H52.2c2.6-8.6,3.7-17.6,3.2-26.5L53.9,228.5z M10,534.5c1.4-2,2.7-4.2,3.9-6.4l25.4,13.3
				c-2.7,4.7-6.2,8.9-10.2,12.5c-3.2-1.1-6-2.9-8.5-5.1L10,534.5z M91.6,557.5c-3.2,0-6.5-0.1-9.7-0.1h-1.5c-3.4,0.1-6.8,0-10,0.1
				c-11.9,0.1-22.4,0.2-31.1-1.1c3.7-4.1,6.9-8.7,9.3-13.7h62.9c2.5,5.1,5.7,9.8,9.5,13.9C112.5,557.7,102.6,557.6,91.6,557.5
				L91.6,557.5z M142.2,548.3c-3.1,2.8-6.8,4.9-10.9,6.1c-4.7-4.1-8.6-9.1-11.5-14.6l27.6-13.5c1.4,2.9,3,5.6,4.8,8.3L142.2,548.3z"
				/>
		</g>
	</g>
</g>
</svg>
