<?xml version="1.0" encoding="utf-8"?>
<!-- Generator: Adobe Illustrator 23.0.3, SVG Export Plug-In . SVG Version: 6.00 Build 0)  -->
<svg version="1.1" id="Calque_1" xmlns="http://www.w3.org/2000/svg" xmlns:xlink="http://www.w3.org/1999/xlink" x="0px" y="0px"
	 viewBox="0 0 242.9 565" style="enable-background:new 0 0 242.9 565;" xml:space="preserve">
<style type="text/css">
	.st0{fill:#357B3F;}
</style>
<title>bouteillesFichier 13</title>
<g>
	<g id="Calque_2-2">
		<g id="bouteille-11">
			<path class="st0" d="M185.2,99.4c-23.6-10-26.8-16.5-26.3-35.4v-1h1c3.3,0,6-2.7,6-6c0-3.3-2.7-6-6-6h-1V6c0-3.3-2.7-6-6-6H90
				c-3.3,0-6,2.7-6,6v45h-2c-3.3,0-6,2.7-6,6s2.7,6,6,6h2v1.1c0.5,18.8-2.7,25.3-26.5,35.4c-39.8,19-58,46.5-57.5,86.4v339.5
				c-0.4,13.5,3,23.7,9.9,30.5c6.2,6.1,15.3,9.2,26.6,9.2c1,0,2,0,3-0.1H203c1.1,0,2.1,0.1,3.1,0.1c11.5,0,20.6-3.1,26.8-9.2
				c6.9-6.8,10.2-17,9.9-30.3V185.9C243.4,146,225.1,118.5,185.2,99.4z M111.9,12.1h34.9V19H96v-6.9H111.9z M96,31h50.8v20H96V31z
				 M146.8,63v0.8c-0.3,5.7,0.2,11.5,1.4,17.1H94.6c1.2-5.6,1.7-11.2,1.4-16.9v-1H146.8z M224.5,547.2c-4.3,4.2-11.3,6.2-21.2,5.7
				H39.2c-9.3,0.4-16.6-1.5-20.9-5.7s-6.5-11.6-6.2-21.7V185.8c-0.5-35.2,15.1-58.4,50.2-75.3C75.4,105,83.8,99.7,89,93h64.9
				c5.1,6.7,13.4,11.9,26.4,17.4c35.4,17,51,40.2,50.5,75.5v339.8C231,535.6,228.9,542.9,224.5,547.2L224.5,547.2z"/>
			<path class="st0" d="M125.9,149.8h-9c-43.4,0-69.8,12.9-90.9,44.6c-0.7,1-1,2.2-1,3.4v322.6c0,3.3,2.7,6,6,6h180.8
				c3.3,0,6-2.7,6-6V197.8c0-1.2-0.3-2.4-1-3.4C195.7,162.8,169.4,149.8,125.9,149.8z M37.1,308.8h168.7v49.9H37.1V308.8z
				 M116.9,161.9h9c32.3,0,58.4,6.5,79.9,37.8v97H37.1v-97C58.6,168.4,84.6,161.9,116.9,161.9z M109.9,514.5H37.1V370.7h168.7v143.8
				H109.9z"/>
		</g>
	</g>
</g>
</svg>
