<svg xmlns="http://www.w3.org/2000/svg" viewBox="0 0 168.16 563.71"><title>bouteillesFichier 6</title><g id="Calque_2" data-name="Calque 2"><g id="Calque_2-2" data-name="Calque 2"><g id="bouteille-5"><path d="M168.15,513.75a4.62,4.62,0,0,0-.4-1.9v-266c0-.06,0-.12,0-.18s0-.12,0-.18v-3c2.72-35.83-7.8-59.37-31.17-69.92-11.22-5.41-16.93-15.69-17.46-31.29V4.78A4.78,4.78,0,0,0,114.33,0H53.84a4.78,4.78,0,0,0-4.78,4.78V27.31h0V141.06c-.53,15.75-6.24,26-17.36,31.39-23.48,10.6-34,34.14-31.29,69.61V511.85a4.62,4.62,0,0,0-.4,1.9,34.76,34.76,0,0,0,.4,4.39v5.1c0,11.38,1.14,24.09,9.53,32.12,5.92,5.66,14.51,8.35,26.68,8.35,1.34,0,2.73,0,4.16-.1h86.38c1.45.07,2.87.11,4.23.11,12.32,0,20.9-2.7,26.82-8.35,8.4-8,9.54-20.74,9.54-32.12v-5.09A34.92,34.92,0,0,0,168.15,513.75ZM95,535.86H32.65C18,535.34,11.52,527,10,518.06V366.67H158.19v151.4c-1.53,8.89-8,17.27-22.51,17.79Zm63.22-178.75H10V250.4H158.19Zm-36.83-184-7.58-2.29c-1.7-.7-6.87-2.84-5.73-16.94V103.28h1.5v38.1C110,155,114,165.52,121.36,173.1ZM98.49,134.86H69.7V103.28H98.48ZM79.53,32.1h30V61.3H58.62V32.1ZM58.62,70.86h50.93V93.73H58.62ZM82.3,9.56h27.25v13H58.62v-13ZM58.62,141.21V103.28h1.52v51c1.12,13.71-4.06,15.85-5.32,16.39l-8,2.41C54.17,165.5,58.17,154.9,58.62,141.21Zm-35.86,49a4.75,4.75,0,0,0,.83-.12L58,179.64C66.88,176,70.8,167.2,69.7,153.87v-9.46H98.5v9.07c-1.12,13.72,2.79,22.52,12.08,26.32l34,10.28a4.24,4.24,0,0,0,.85.12c10.17,10.66,14.36,27.36,12.79,50.64H9.93C8.31,217.64,12.5,200.91,22.76,190.2ZM127.38,554.05H40.58c-11.67.54-19.53-1.3-24-5.61-2.48-2.37-4.14-5.77-5.19-10.36a35.57,35.57,0,0,0,21.13,7.33H135.85a35.35,35.35,0,0,0,21-7.3c-1.06,4.58-2.72,8-5.19,10.33C147.11,552.75,139.24,554.58,127.38,554.05Z"/></g></g></g></svg>