<?xml version="1.0" encoding="utf-8"?>
<!-- Generator: Adobe Illustrator 23.0.3, SVG Export Plug-In . SVG Version: 6.00 Build 0)  -->
<svg version="1.1" id="Calque_1" xmlns="http://www.w3.org/2000/svg" xmlns:xlink="http://www.w3.org/1999/xlink" x="0px" y="0px"
	 viewBox="0 0 137.2 566.1" style="enable-background:new 0 0 137.2 566.1;" xml:space="preserve">
<style type="text/css">
	.st0{fill:#357B3F;}
</style>
<title>bouteillesFichier 7</title>
<g>
	<g id="Calque_2-2">
		<g id="bouteille-6">
			<path class="st0" d="M135.3,161.7L96,135.2c-0.1-0.2-0.3-0.4-0.4-0.6V4.5c0-2.5-2-4.5-4.5-4.5h-45c-2.5,0-4.5,2-4.5,4.5
				c0,0,0,0,0,0v130.4L2,161.7c-0.1,0.1-0.1,0.2-0.2,0.3c-0.4,0.3-0.7,0.6-1,1c-0.1,0.1-0.2,0.3-0.3,0.5c-0.3,0.6-0.5,1.3-0.5,1.9
				l0,0l0,0L3,427c-0.2,0.6-0.2,1.2-0.1,1.8c0,0.4,0.1,0.7,0.2,1.1l1.5,131.8c0,2.5,2,4.4,4.5,4.4h119.3c2.4,0,4.4-2,4.5-4.4
				l4.5-396.2C137.3,164,136.5,162.5,135.3,161.7z M125,427.6c-4,30.2-8,46.2-13.7,64.5c-7.2,15.3-23,24.6-39.8,23.3h-7.4
				c-16.5,0.7-31.7-8.3-38.5-22.8c-5.8-18.5-9.8-34.3-13.7-63.5L9,169.9h119.2l-2.9,256.7C125.2,426.9,125.1,427.3,125,427.6z
				 M50.6,132.9v-14.8h36.1v14.8H50.6z M50.6,105.3h36.1v3.9H50.6V105.3z M86.7,97.3H50.6V34.6h36.1V97.3z M64.1,8.9h22.5v17.2H50.6
				V8.9H64.1z M47.6,141.6h42l28.5,19.4H19.1L47.6,141.6z M76.5,557.1H13.4l-0.9-77.4c1.5,5.4,3,10.7,4.8,16.2
				c8,17.4,25.4,28.6,44.6,28.6c1.1,0,2.2,0,3.3-0.1h6.2c1,0.1,2.1,0.1,3.1,0.1c19.3,0,36.7-11,45.1-29.1c1.9-6,3.6-11.8,5.2-17.8
				l-0.9,79.6H76.5z"/>
			<path class="st0" d="M111.4,226.2H27c-2.5,0-4.5,2-4.5,4.4c0,0,0,0,0,0v75.4c0,2.5,2,4.5,4.5,4.5c0,0,0,0,0,0h84.4
				c2.5,0,4.5-2,4.5-4.4c0,0,0,0,0,0v-75.4C115.9,228.2,113.9,226.2,111.4,226.2C111.4,226.2,111.4,226.2,111.4,226.2z M106.9,301.6
				H31.4v-66.5h75.5L106.9,301.6z"/>
		</g>
	</g>
</g>
</svg>
