<svg fill="#62b76f" xmlns="http://www.w3.org/2000/svg" viewBox="0 0 153.09 566.06"><title>bouteillesFichier 1</title><g id="Calque_2" data-name="Calque 2"><g id="Calque_2-2" data-name="Calque 2"><g id="bouteille-1"><path d="M143.43,518.76l6.35-310.48a4.83,4.83,0,0,0-3.13-4.63c-18.16-6.81-27.92-14.51-40.89-27.85V72.12h.76a4.84,4.84,0,0,0,4.84-4.84V4.84A4.84,4.84,0,0,0,106.52,0H46.57a4.83,4.83,0,0,0-4.83,4.84V67.28a4.84,4.84,0,0,0,4.83,4.84h.77V175.8c-13,13.34-22.74,21-40.89,27.85a4.83,4.83,0,0,0-3.14,4.63l1.22,59.79A28.5,28.5,0,0,0,4.11,273a4.67,4.67,0,0,0,.57,2.17l5,243.57a26.37,26.37,0,0,0-8.82,27C4,557.66,15,565.25,30.56,566.06H76.19c.13,0,.23-.06.36-.07s.23.07.35.07h45.89c15.34-.81,26.36-8.4,29.46-20.31A26.35,26.35,0,0,0,143.43,518.76ZM19.29,516.37,17,404.35H136.1l-2.29,112ZM16.13,361.92H137l-.67,32.76H16.8Zm121-9.67H15.93l-1.7-83.15c3.84-17.39,33.05-26.46,62-26.46,16.68,0,32.79,3,44.19,8.35,8.31,3.87,18.22,10.84,18.22,22a5.66,5.66,0,0,0,.16.82ZM96.08,72.12v53.57H57V72.12ZM57,135.36H96.08v14.35H57Zm0,24H96.08v13.54H57Zm44.67-96.94h-.76c-.13,0-.23.07-.36.08s-.23-.08-.35-.08H51.41V21.68h50.27ZM74.5,9.67h27.18V12H51.41V9.67ZM54.2,182.59H98.61c.08,0,.15,0,.24,0,11.25,11.56,20.69,19.51,34.63,26.07l-23.9,5.24a4.84,4.84,0,0,0,1,9.56,4.6,4.6,0,0,0,1-.11l28.28-6.21-.72,35.15C126,239.13,100.49,233,76.19,233c-23.85,0-48.94,5.92-62.32,18.54l-.71-34.58c24.56,5.94,48.42,9,71.07,9q4.09,0,8.13-.12a4.85,4.85,0,0,0,4.68-5,5,5,0,0,0-5-4.68c-22.81.77-47.1-2-72.19-7.66C33.65,202,43,194.06,54.2,182.59Zm88.69,360.72c-2,7.74-9.53,12.51-20.36,13.08H76.9c-.12,0-.23.06-.35.07s-.23-.07-.36-.07H30.81c-11.08-.58-18.59-5.35-20.61-13.09A16.67,16.67,0,0,1,16.3,526H136.79A16.65,16.65,0,0,1,142.89,543.31Z"/></g></g></g></svg>