<?xml version="1.0" encoding="utf-8"?>
<!-- Generator: Adobe Illustrator 23.0.3, SVG Export Plug-In . SVG Version: 6.00 Build 0)  -->
<svg version="1.1" id="Calque_1" xmlns="http://www.w3.org/2000/svg" xmlns:xlink="http://www.w3.org/1999/xlink" x="0px" y="0px"
	 viewBox="0 0 241 566.9" style="enable-background:new 0 0 241 566.9;" xml:space="preserve">
<style type="text/css">
	.st0{fill:#357B3F;}
</style>
<title>bouteillesFichier 12</title>
<g>
	<g id="Calque_2-2">
		<g id="bouteille-10">
			<path class="st0" d="M224,289.5l-60.7-50.2c-5.7-9-5.4-91.5-5.2-157.7c0-5.5,0-11,0-16.5h2.4c3.2,0.1,5.9-2.3,6-5.5
				c0.1-3.2-2.3-5.9-5.5-6c-0.2,0-0.3,0-0.5,0h-2.4c0-16.4,0-32.6-0.1-47.9c0-3.2-2.6-5.7-5.8-5.7H88.8C85.6,0,83,2.6,83,5.7
				c-0.1,15.3-0.1,31.5-0.1,47.9h-0.8c-3.2-0.1-5.9,2.3-6,5.5c-0.1,3.2,2.3,5.9,5.5,6c0.2,0,0.3,0,0.5,0h0.9c0,5.5,0,11,0,16.5
				c0.2,66.2,0.5,148.7-4.6,157.1l-61.6,51C3.4,302.5-2,319,0.6,338.6l18.2,196.6c2.8,18.6,8.7,30.4,29.7,31.7h144.3
				c20.6-1.3,26.5-13.1,29.3-32l18.2-196.1C243,319,237.6,302.5,224,289.5z M115.9,11.5h30.6c0,8,0,16.4,0,24.8H94.4
				c0-8.4,0-16.8,0-24.8L115.9,11.5z M94.4,48h52.2c0,1.9,0,3.8,0,5.7H94.5C94.4,51.7,94.4,49.8,94.4,48z M146.6,65.2
				c0,5.5,0,10.9,0,16.4c0,9.8-0.1,18.8-0.1,27.5H94.6c0-8.7,0-17.8-0.1-27.5c0-5.5,0-10.9,0-16.4H146.6z M228.9,337.6l-18.2,196
				c-2.7,17.8-7.2,21.2-18.2,21.9H48.9c-11.4-0.7-15.9-4.1-18.5-21.6L12.1,337.3c-2.2-16.1,2-28.9,12.3-38.8l61.5-50.9
				c6.9-6.2,8.6-37.1,8.7-126.8h51.8c0,89.7,1.8,120.6,8.9,127l61,50.5C227,308.4,231.1,321.1,228.9,337.6L228.9,337.6z"/>
			<path class="st0" d="M119.4,318.9c29,0,51.7-15.8,51.7-36S148.4,247,119.4,247s-51.8,15.8-51.8,36S90.4,318.9,119.4,318.9z
				 M119.4,258.6c21.8,0,40.2,11.2,40.2,24.4s-18.4,24.4-40.2,24.4S79.2,296.2,79.2,283S97.6,258.6,119.4,258.6z"/>
			<path class="st0" d="M206.5,364.8H39c-3.2-0.1-5.9,2.3-6,5.5c-0.1,3.2,2.3,5.9,5.5,6c0.2,0,0.3,0,0.5,0h167.5
				c3.2,0.1,5.9-2.3,6-5.5c0.1-3.2-2.3-5.9-5.5-6C206.9,364.8,206.7,364.8,206.5,364.8z"/>
			<path class="st0" d="M206.5,384H39c-3.2-0.1-5.9,2.3-6,5.5c-0.1,3.2,2.3,5.9,5.5,6c0.2,0,0.3,0,0.5,0h167.5
				c3.2,0.1,5.9-2.3,6-5.5c0.1-3.2-2.3-5.9-5.5-6C206.9,384,206.7,384,206.5,384z"/>
		</g>
	</g>
</g>
</svg>
