<?xml version="1.0" encoding="utf-8"?>
<!-- Generator: Adobe Illustrator 23.0.3, SVG Export Plug-In . SVG Version: 6.00 Build 0)  -->
<svg version="1.1" id="Calque_1" xmlns="http://www.w3.org/2000/svg" xmlns:xlink="http://www.w3.org/1999/xlink" x="0px" y="0px"
	 viewBox="0 0 224.1 474" style="enable-background:new 0 0 224.1 474;" xml:space="preserve">
<style type="text/css">
	.st0{fill:#357B3F;}
</style>
<title>bouteillesFichier 8</title>
<g>
	<g id="Calque_2-2">
		<g id="bouteille-7">
			<path class="st0" d="M223.4,421.5c-2.6-15.9-4.5-31.6-6-47.2c0-0.4,0-0.8-0.1-1.2c-5.6-58-4-113.5,4.9-165.4
				c0.3-1.9-0.6-3.8-2.2-4.8l-74.3-44.1V117h6.1c2.6,0,4.6-2.1,4.6-4.6c0-2.6-2.1-4.6-4.6-4.6h-18.1c0,0,0-0.1,0-0.2V93H153
				c2.6,0,4.6-2.1,4.6-4.6c0,0,0,0,0,0V4.6c0-2.6-2.1-4.6-4.6-4.6H71.1c-2.6,0-4.6,2.1-4.6,4.6v83.8c0,2.5,2.1,4.6,4.6,4.6h19.3
				v14.5c0,0.1,0,0.1,0,0.2H72.3c-2.6,0-4.6,2.1-4.6,4.6s2.1,4.6,4.6,4.6c0,0,0,0,0,0h6.1v41.8L4.1,202.9c-1.6,1-2.5,2.9-2.2,4.8
				c8.9,51.9,10.5,107.4,4.9,165.5c-0.1,0.4-0.1,0.8-0.1,1.1c-1.5,15.6-3.5,31.5-6,47.5c-2.3,19.4,0.9,33.2,9.6,42
				c6.7,6.8,16.8,10.3,29.6,10.3c2.8,0,5.7-0.2,8.5-0.5h126.9c2.9,0.3,5.8,0.5,8.7,0.5c13.1,0,23.1-3.4,29.8-10.3
				C222.4,455,225.7,440.9,223.4,421.5z M120.2,415.2H67.3c-28.7,1.5-46.4-12.6-51.2-40.7c5.4-56.1,4.2-109.9-3.8-160.5
				c61-19.3,126.4-19.3,199.5,0.3c-7.9,50.6-9.1,104.3-3.7,160.3c-4.8,28.1-22.5,42.2-51.5,40.7H120.2z M200.1,201.8
				c-62.5-14.7-119.5-15.4-173.2-1.7L84.4,166h55.4L200.1,201.8z M104,9.3h44.4v9.9H75.8V9.3H104z M75.8,28.4h72.6v55.3H75.8V28.4z
				 M99.7,107.5V93h24.8v14.5c0,0.1,0,0.1,0,0.2H99.7C99.7,107.7,99.7,107.6,99.7,107.5z M100.4,117h36v39.8H87.7V117L100.4,117z
				 M207.3,457.2c-6.1,6.2-16.6,8.6-31.5,7.1H47.9c-14.5,1.5-24.9-0.9-31-7.1c-6.5-6.6-8.9-18.2-7-34.2c1.4-8.7,2.6-17.4,3.7-26
				c9.3,18,26.2,27.7,49.2,27.7c1.5,0,3.1,0,4.7-0.1h88.8c1.6,0.1,3.2,0.1,4.7,0.1c23.2,0,40.1-9.6,49.4-27.7
				c1.1,8.6,2.3,17.2,3.7,25.8C216.1,439,213.8,450.6,207.3,457.2z"/>
			<path class="st0" d="M161.9,392.3V251.1c0-2.6-2.1-4.6-4.6-4.6c0,0,0,0,0,0H65.2c-2.6,0-4.6,2.1-4.7,4.6c0,0,0,0,0,0v141.2
				c0,2.6,2.1,4.7,4.6,4.7c0,0,0,0,0,0h92.1C159.8,397,161.9,394.9,161.9,392.3C161.9,392.4,161.9,392.3,161.9,392.3z M152.6,387.7
				H69.8V255.8h82.8V387.7z"/>
		</g>
	</g>
</g>
</svg>
