<svg xmlns="http://www.w3.org/2000/svg" viewBox="0 0 241.03 566.94"><title>bouteillesFichier 12</title><g id="Calque_2" data-name="Calque 2"><g id="Calque_2-2" data-name="Calque 2"><g id="bouteille-10"><path d="M224,289.55l-60.73-50.17c-5.66-9-5.38-91.49-5.16-157.72,0-5.49,0-11,0-16.47h2.43a5.79,5.79,0,1,0,0-11.57h-2.41c0-16.42,0-32.6-.07-47.88A5.8,5.8,0,0,0,152.3,0H88.75A5.8,5.8,0,0,0,83,5.74c-.11,15.28-.11,31.46-.08,47.88h-.83a5.79,5.79,0,1,0,0,11.57h.86c0,5.48,0,11,0,16.47.22,66.23.5,148.67-4.6,157.14l-61.59,51C3.44,302.54-2,319,.64,338.58L18.88,535.2c2.79,18.64,8.67,30.44,29.66,31.74H192.87c20.63-1.29,26.51-13.09,29.34-32l18.17-196.06C243,319,237.61,302.54,224,289.55Zm-108.07-278h30.64c0,8,0,16.44,0,24.81H94.45c0-8.37,0-16.78,0-24.81ZM94.44,48h52.17c0,1.88,0,3.79,0,5.67H94.46C94.45,51.74,94.45,49.83,94.44,48Zm52.12,17.24c0,5.49,0,10.94,0,16.43,0,9.77-.05,18.82-.06,27.54H94.59c0-8.72,0-17.77-.06-27.54,0-5.49,0-10.94,0-16.43Zm82.33,272.33-18.16,196c-2.66,17.77-7.19,21.18-18.22,21.88H48.89c-11.38-.71-15.91-4.12-18.53-21.57L12.13,337.28c-2.16-16.14,2-28.93,12.32-38.82l61.47-50.91c6.94-6.25,8.64-37.1,8.68-126.82h51.85c0,89.72,1.76,120.59,8.85,127l61,50.48C227,308.35,231.08,321.14,228.89,337.52Z"/><path d="M119.4,318.94c29,0,51.75-15.79,51.75-35.95s-22.74-35.94-51.75-35.94S67.64,262.83,67.64,283,90.38,318.94,119.4,318.94Zm0-60.33c21.78,0,40.17,11.17,40.17,24.38s-18.39,24.38-40.17,24.38S79.22,296.21,79.22,283,97.62,258.61,119.4,258.61Z"/><path d="M206.53,364.82H39a5.79,5.79,0,1,0,0,11.57H206.53a5.79,5.79,0,1,0,0-11.57Z"/><path d="M206.53,384H39a5.79,5.79,0,1,0,0,11.57H206.53a5.79,5.79,0,1,0,0-11.57Z"/></g></g></g></svg>