<?xml version="1.0" encoding="utf-8"?>
<!-- Generator: Adobe Illustrator 23.0.3, SVG Export Plug-In . SVG Version: 6.00 Build 0)  -->
<svg version="1.1" id="Calque_1" xmlns="http://www.w3.org/2000/svg" xmlns:xlink="http://www.w3.org/1999/xlink" x="0px" y="0px"
	 viewBox="0 0 265.5 471.6" style="enable-background:new 0 0 265.5 471.6;" xml:space="preserve">
<style type="text/css">
	.st0{fill:#357B3F;}
</style>
<title>bouteillesFichier 9</title>
<g>
	<g id="Calque_2-2">
		<g id="bouteille-8">
			<path class="st0" d="M265.5,208.5c1-22.8-17.6-58.8-54.1-64.2l-37.1-4.2c-6.4-1.2-9.5-4.3-10.3-9.4v-4h6c2.8,0.1,5.3-2.1,5.4-4.9
				c0.1-2.8-2.1-5.3-4.9-5.4c-0.2,0-0.3,0-0.5,0h-6V76.1h2.5c2.8,0,5.2-2.3,5.2-5.1c0,0,0,0,0,0V18c0-0.9-0.3-1.9-0.7-2.7
				C166.1,7.5,153.6-0.2,132.7,0c-20.9-0.2-33.3,7.5-38,15.3c-0.5,0.8-0.8,1.7-0.8,2.7v52.9c0,2.8,2.3,5.2,5.2,5.2h2.5v40.2h-5.3
				c-2.8-0.1-5.3,2.1-5.4,4.9c-0.1,2.8,2.1,5.3,4.9,5.4c0.2,0,0.3,0,0.5,0h5.4v3.2c-0.9,5.9-4,9-10,10.2l-37.7,4.3
				c-36.3,5.4-54.9,41.4-53.9,64v204c0.2,16.8,2,33.9,13.9,45.6c9.4,9.2,23.8,13.7,43.9,13.7h149.9c20.1,0,34.5-4.5,43.9-13.7
				c11.9-11.7,13.7-28.8,13.9-45.6L265.5,208.5z M159.9,65.7c-0.3-0.1-0.7-0.2-1-0.2h-51.3c-0.3,0-0.7,0.1-1,0.2h-0.3
				c17.4-10,35.3-10,54.6,0H159.9z M111.9,75.8h41.7v24.9h-41.7V75.8z M128.9,10.3c0.1,0,0.2,0,0.3,0c1.2-0.1,2.4,0,3.5-0.1
				s2.3,0,3.6,0.1c0.1,0,0.2,0,0.3,0c13.9,0.6,21.7,5.5,24.7,9.3v34.9c-19.8-9-38.9-8.7-57.1,0.6V19.6c3.1-3.8,10.8-8.6,24.8-9.3
				L128.9,10.3z M111.9,111h41.8v5.3h-41.7L111.9,111z M55.3,154.5l38-4.3c10.6-2,17-8.5,18.7-19.6v-4h41.8v4.8
				c1.6,10.2,8,16.7,19,18.8l37.4,4.2c31.4,4.7,45.8,36.9,45.1,53.8v202.6H10.4V208.1C9.6,191.4,24.1,159.2,55.3,154.5z
				 M244.4,450.5c-7.6,7.4-19.9,10.9-38.2,10.7H59.3c-18,0.3-30.6-3.3-38.2-10.7c-7.3-7.2-9.7-17.9-10.4-29.3h244.1
				C254.1,432.6,251.7,443.4,244.4,450.5L244.4,450.5z"/>
			<path class="st0" d="M75.8,381.6h112c2.8,0,5.2-2.3,5.2-5.1c0,0,0,0,0,0v-112c0-2.8-2.3-5.1-5.1-5.1c0,0,0,0,0,0h-112
				c-2.8,0-5.2,2.3-5.2,5.1c0,0,0,0,0,0v112C70.6,379.3,73,381.6,75.8,381.6C75.8,381.6,75.8,381.6,75.8,381.6z M81,269.6h101.7
				v101.7H81L81,269.6z"/>
		</g>
	</g>
</g>
</svg>
