<?xml version="1.0" encoding="utf-8"?>
<!-- Generator: Adobe Illustrator 23.0.3, SVG Export Plug-In . SVG Version: 6.00 Build 0)  -->
<svg version="1.1" id="Calque_1" xmlns="http://www.w3.org/2000/svg" xmlns:xlink="http://www.w3.org/1999/xlink" x="0px" y="0px"
	 viewBox="0 0 532.1 501.8" style="enable-background:new 0 0 532.1 501.8;" xml:space="preserve">
<style type="text/css">
	.st0{fill:#357B3F;}
</style>
<title>sucreFichier 17</title>
<g>
	<g id="Calque_2-2">
		<g id="sucres">
			<path class="st0" d="M266.4,251.2l-102,56.8l-68.9-38.5c-4.3-2.5-9.8-1.1-12.3,3.2c-2.5,4.3-1.1,9.8,3.2,12.3
				c0.1,0.1,0.2,0.1,0.3,0.2l68.7,38.4v39c0,5,4,9,9,9s9-4,9-9v-39L275.1,267c4.3-2.4,5.9-7.9,3.5-12.2S270.7,248.9,266.4,251.2
				L266.4,251.2L266.4,251.2z"/>
			<path class="st0" d="M33,270.9v-7.6c-0.1-3.5-3.1-6.2-6.6-6.1c-3.3,0.1-5.9,2.8-6.1,6.1v7.5c0,3.3,2.9,6.5,6.3,6.3
				C30.2,277.1,32.9,274.3,33,270.9z"/>
			<path class="st0" d="M36,285c-3.5,0.1-6.3,2.8-6.3,6.3v5.8c0,3.3,2.9,6.5,6.3,6.3c3.5-0.1,6.3-2.8,6.3-6.3v-5.8
				C42.3,288,39.4,284.8,36,285z"/>
			<path class="st0" d="M52,272.1c-3.5,0.1-6.3,2.8-6.3,6.3v7.1c0,3.5,2.8,6.3,6.3,6.3c3.5,0,6.3-2.8,6.3-6.3v-7.1
				C58.3,274.9,55.5,272.1,52,272.1z"/>
			<path class="st0" d="M270.9,342.9c-3.5,0.1-6.3,2.8-6.3,6.3v4c0,3.3,2.9,6.5,6.3,6.3c3.5-0.1,6.3-2.8,6.3-6.3v-4
				C277.2,345.8,274.4,343,270.9,342.9z"/>
			<path class="st0" d="M238.2,320.5c-1.7,0-3.3,0.7-4.5,1.9c-1.2,1.2-1.8,2.8-1.9,4.5v2.3c0,1.7,0.7,3.3,1.9,4.5
				c2.5,2.5,6.5,2.5,8.9,0c1.2-1.2,1.8-2.8,1.9-4.5v-2.3c0-1.7-0.7-3.3-1.9-4.5C241.5,321.2,239.9,320.6,238.2,320.5z"/>
			<path class="st0" d="M235.4,382c-1.7,0-3.3,0.7-4.5,1.9c-1.2,1.2-1.8,2.8-1.9,4.5v2.3c0,1.7,0.7,3.3,1.9,4.5
				c2.5,2.5,6.5,2.5,8.9,0c0,0,0,0,0,0c1.2-1.2,1.8-2.8,1.9-4.5v-2.3c0-1.7-0.7-3.3-1.9-4.5C238.6,382.7,237,382,235.4,382z"/>
			<path class="st0" d="M469.1,118.2l-102,56.8l-68.9-38.5c-4.4-2.3-9.8-0.7-12.2,3.7c-2.3,4.3-0.8,9.6,3.4,12l68.7,38.4v39
				c0,5,4,9,9,9s9-4,9-9v-39l101.7-56.7c4.3-2.5,5.7-8,3.2-12.3C478.6,117.4,473.3,115.9,469.1,118.2L469.1,118.2z"/>
			<path class="st0" d="M347.5,294.7c-3.5,0.1-6.3,2.8-6.3,6.3v7.1c0,3.5,2.8,6.3,6.3,6.3s6.3-2.8,6.3-6.3c0,0,0,0,0,0V301
				C353.7,297.5,350.9,294.7,347.5,294.7z"/>
			<path class="st0" d="M428.1,187.3c-3.5,0.1-6.3,2.9-6.3,6.3v4c0,3.5,2.8,6.3,6.3,6.3s6.3-2.8,6.3-6.3c0,0,0,0,0,0v-4
				C434.4,190.1,431.6,187.3,428.1,187.3z"/>
			<path class="st0" d="M404,224.8c-1.7,0-3.3,0.7-4.5,1.9c-1.2,1.2-1.8,2.8-1.9,4.5v2.3c0,1.7,0.7,3.3,1.9,4.5
				c2.5,2.5,6.4,2.5,8.9,0c0,0,0,0,0,0c1.2-1.2,1.8-2.8,1.9-4.5v-2.3c0-1.7-0.7-3.3-1.9-4.5C407.3,225.4,405.7,224.8,404,224.8z"/>
			<path class="st0" d="M400,204.2v-2.3c0-1.7-0.7-3.3-1.9-4.5c-2.5-2.5-6.4-2.5-8.9,0c0,0,0,0,0,0c-1.2,1.2-1.8,2.8-1.9,4.5v2.3
				c0,3.5,2.8,6.3,6.3,6.3c1.7,0,3.3-0.7,4.5-1.9C399.3,207.5,400,205.9,400,204.2z"/>
			<path class="st0" d="M531.9,96.5c0-3.3-1.8-6.3-4.6-7.8L370.7,1.1c-2.7-1.5-6-1.5-8.8,0L205.1,88.5c-2.9,1.6-4.6,4.6-4.6,7.9v56
				l-30.3-16.9c-2.7-1.5-6-1.5-8.8,0L4.6,222.8c-2.9,1.6-4.6,4.6-4.6,7.9v174.8c0,3.3,1.8,6.3,4.6,7.9l156.8,87.4
				c2.7,1.5,6,1.5,8.8,0L327,413.3c2.9-1.6,4.6-4.6,4.6-7.9l-0.1-56l30.4,17c1.3,0.7,2.8,1.1,4.4,1.1c1.5,0,3-0.4,4.4-1.1L527.5,279
				c2.9-1.6,4.6-4.6,4.6-7.9L531.9,96.5z M173.2,478.4v-80c0-5-4-9-9-9s-9,4-9,9v78.1L18,400.1V236l147.8-82.4l147.6,82.5l0.2,164
				L173.2,478.4z M375.9,342.9v-77.5c0-5-4-9-9-9s-9,4-9,9v78.1l-26.4-14.7l-0.1-55.1c2.6-0.8,4.3-3.2,4.3-5.9v-7.5
				c-0.1-2.7-1.8-5.1-4.3-6v-23.4c0-3.3-1.8-6.2-4.6-7.8l-108.3-60.5v-60.8l147.8-82.3l147.5,82.5l0.2,164L375.9,342.9z"/>
		</g>
	</g>
</g>
</svg>
