<svg xmlns="http://www.w3.org/2000/svg" viewBox="0 0 354.76 358.88"><title>feuilleFichier 16</title><g id="Calque_2" data-name="Calque 2"><g id="Calque_2-2" data-name="Calque 2"><g id="feuilles"><path d="M354.62,184a10.56,10.56,0,0,0-5.31-10.93,209.24,209.24,0,0,0-95.93-28.55,206.75,206.75,0,0,0-48.32,3.39,207.21,207.21,0,0,0-1.28-50.81A209.39,209.39,0,0,0,165.48,4.3,10.57,10.57,0,0,0,154,.44,208,208,0,0,0,38,321.22a10.56,10.56,0,0,0,5.42,8.88,209.31,209.31,0,0,0,95.93,28.54A208.24,208.24,0,0,0,354.62,184ZM61,252.62A210,210,0,0,0,44.55,291.8,187.74,187.74,0,0,1,23.2,229.09a185.78,185.78,0,0,1,3.4-72.17l39.32,81.69Zm14.8-42.28-39.6-82.25a185.81,185.81,0,0,1,39.64-58.8l28.56,59.33Zm38.5-110-22-45.64a188.14,188.14,0,0,1,47.51-27.3Zm205.86,81.5-70,32.8L267.43,167A188.09,188.09,0,0,1,320.18,181.85Zm-74.72-16.36-22.38,61.87-78.4,36.74,31-85.83A186,186,0,0,1,245.46,165.49ZM159.85,34.41a188,188,0,0,1,23,65.78q1.17,7.75,1.66,15.63l-64,30.8ZM110.67,174.89l73.89-35.57c-.29,4.65-.79,9.32-1.45,14A208.7,208.7,0,0,0,101.88,200Zm-16.2,64.74a185.82,185.82,0,0,1,53.89-47.95l-30.8,85.14-54,25.29A187.94,187.94,0,0,1,94.47,239.63Zm45.89,97.9A187.93,187.93,0,0,1,72.58,321.3l30.92-14.5,80.88,27.55A185.41,185.41,0,0,1,140.36,337.53ZM228.44,320c-3,1.42-6.07,2.71-9.13,3.95l-88.23-30.05L194.4,264.2l77,27.86A187.11,187.11,0,0,1,228.44,320Zm69.84-56.47c-3.15,4.17-6.55,8.18-10.07,12.1l-66.69-24.13L329.17,201A188,188,0,0,1,298.28,263.51Z"/></g></g></g></svg>