<?xml version="1.0" encoding="utf-8"?>
<!-- Generator: Adobe Illustrator 23.0.3, SVG Export Plug-In . SVG Version: 6.00 Build 0)  -->
<svg version="1.1" id="Calque_1" xmlns="http://www.w3.org/2000/svg" xmlns:xlink="http://www.w3.org/1999/xlink" x="0px" y="0px"
	 viewBox="0 0 407.6 342.1" style="enable-background:new 0 0 407.6 342.1;" xml:space="preserve">
<style type="text/css">
	.st0{fill:#357B3F;}
</style>
<title>trancheFichier 15</title>
<g>
	<g id="Calque_2-2">
		<g id="tranches">
			<path class="st0" d="M374.4,144.6c-0.1-0.1-0.2-0.1-0.3-0.1c-0.4-0.3-0.9-0.4-1.3-0.7l-0.3-0.1c-2.1-1.1-4.5-1.8-6.9-2
				c-120.5-7.3-303-117.1-338.4-139c-5.1-3.2-11.6-3.5-17-0.6c-5.7,3-9.3,8.8-9.6,15.2C-2.1,70.4-1.2,249.7,121.1,321
				c12.6,7.5,26.5,12.8,40.9,15.6l0.3,0.1c16.2,3.5,32.7,5.3,49.3,5.3c85.5,0,151.9-47.5,179.3-70.8c10.6-9.2,16.7-22.5,16.7-36.4
				C408.6,168.1,375.8,145.5,374.4,144.6z M322.2,156.1c-8.5,14.1-26.1,41.3-48.9,66.2l-68.2-104
				C244.1,134.7,284.5,148.6,322.2,156.1z M258.6,237.1c-30.8,28.9-68.4,49.2-105.4,31.5c-0.1-0.1-0.3-0.2-0.4-0.2l29.1-148.2
				L258.6,237.1z M134.2,257.4c-29.4-21.3-48-54-59.8-88.2l88.1-56L134.2,257.4z M153.2,95l-84.9,54C56.7,105.9,54.7,63.9,54.6,42.7
				C80.9,57.9,115.3,76.8,153.2,95z M211.1,314.5c-27.1,7.7-53.9,4-79.7-11.1c-47.9-27.9-80.9-77.8-98.2-148.3
				C19.8,100.2,19.8,46.8,20.7,22.5c4,2.4,8.5,5.2,13.6,8.2c-0.8,34.8,2.4,69.6,9.4,103.6c16,76,50.8,128.7,100.7,152.6
				c11.7,5.7,24.4,8.6,37.4,8.7c33.2,0,68.6-19.2,104.1-57.1c30.1-32,51.3-67.5,57.8-78.8c5.8,0.8,11.6,1.5,17.2,1.9
				C342.8,195.3,284.5,293.5,211.1,314.5L211.1,314.5z M387.2,234.6c0,8.1-3.5,15.9-9.6,21.2c-20.7,17.6-65.3,50.1-123.7,61.7
				c57.2-34.4,100.6-102.2,121.5-140.1C381.6,188.8,387.7,207,387.2,234.6L387.2,234.6z"/>
		</g>
	</g>
</g>
</svg>
