<?xml version="1.0" encoding="utf-8"?>
<!-- Generator: Adobe Illustrator 23.0.3, SVG Export Plug-In . SVG Version: 6.00 Build 0)  -->
<svg version="1.1" id="Calque_1" xmlns="http://www.w3.org/2000/svg" xmlns:xlink="http://www.w3.org/1999/xlink" x="0px" y="0px"
	 viewBox="0 0 354.8 358.9" style="enable-background:new 0 0 354.8 358.9;" xml:space="preserve">
<style type="text/css">
	.st0{fill:#357B3F;}
</style>
<title>feuilleFichier 16</title>
<g>
	<g id="Calque_2-2">
		<g id="feuilles">
			<path class="st0" d="M354.6,184c0.7-4.4-1.4-8.8-5.3-10.9c-29.2-17.1-62.1-26.9-95.9-28.6c-16.2-0.8-32.4,0.4-48.3,3.4
				c1.7-16.9,1.2-34-1.3-50.8c-5.1-33.6-18.2-65.4-38.3-92.8c-2.6-3.6-7.2-5.1-11.5-3.9C43.1,30.2-22.7,144.3,7.1,255.3
				c6.3,23.6,16.8,45.9,30.9,65.9c0.1,3.7,2.2,7.1,5.4,8.9c29.2,17.1,62.1,26.9,95.9,28.5C245.1,363.6,337.7,288.5,354.6,184z
				 M61,252.6c-6.8,12.5-12.3,25.6-16.5,39.2c-10.8-19.5-18-40.7-21.3-62.7c-3.6-24-2.4-48.6,3.4-72.2l39.3,81.7L61,252.6z
				 M75.8,210.3l-39.6-82.2c9.3-22,22.8-41.9,39.6-58.8l28.6,59.3L75.8,210.3z M114.3,100.3l-22-45.6c14.4-11.4,30.4-20.6,47.5-27.3
				L114.3,100.3z M320.2,181.8l-70,32.8l17.3-47.6C285.6,169.3,303.4,174.4,320.2,181.8L320.2,181.8z M245.4,165.5l-22.4,61.9
				l-78.4,36.7l31-85.8C197.9,169.6,221.6,165.2,245.4,165.5L245.4,165.5z M159.9,34.4c11.7,20.3,19.5,42.6,23,65.8
				c0.8,5.2,1.3,10.4,1.7,15.6l-64,30.8L159.9,34.4z M110.7,174.9l73.9-35.6c-0.3,4.6-0.8,9.3-1.4,14c-30.3,9.2-58,25.2-81.2,46.7
				L110.7,174.9z M94.5,239.6c14.7-19.3,33-35.6,53.9-47.9l-30.8,85.1l-54,25.3C69.9,279.5,80.4,258.3,94.5,239.6z M140.4,337.5
				c-23.4-1.1-46.4-6.6-67.8-16.2l30.9-14.5l80.9,27.5C169.9,337.2,155.1,338.2,140.4,337.5z M228.4,320c-3,1.4-6.1,2.7-9.1,4
				l-88.2-30l63.3-29.7l77,27.9C258.4,303.3,244,312.7,228.4,320z M298.3,263.5c-3.1,4.2-6.5,8.2-10.1,12.1l-66.7-24.1L329.2,201
				C322.9,223.6,312.4,244.8,298.3,263.5L298.3,263.5z"/>
		</g>
	</g>
</g>
</svg>
