<?xml version="1.0" encoding="utf-8"?>
<!-- Generator: Adobe Illustrator 23.0.3, SVG Export Plug-In . SVG Version: 6.00 Build 0)  -->
<svg version="1.1" id="Calque_1" xmlns="http://www.w3.org/2000/svg" xmlns:xlink="http://www.w3.org/1999/xlink" x="0px" y="0px"
	 viewBox="0 0 650 650" style="enable-background:new 0 0 650 650;" xml:space="preserve">
<style type="text/css">
	.st0{fill:#FFFFFF;}
	.st1{clip-path:url(#SVGID_2_);}
</style>
<path class="st0" d="M545.8,94.6c-4.1,0-7.5,3.4-7.5,7.5v332.5c0,21.8-10.6,42.5-29.9,58.4c-19,15.7-44.6,24.7-70.1,24.7H210.1
	c-25.5,0-51.1-9-70.2-24.7c-19.3-15.9-29.9-36.7-29.9-58.4V210.4h325c4.1,0,7.5-3.4,7.5-7.5s-3.4-7.5-7.5-7.5h-325v-93.2
	c0-4.1-3.4-7.5-7.5-7.5s-7.5,3.4-7.5,7.5v473.5c0,31.9,26,57.9,57.9,57.9h342.5c31.9,0,57.9-26,57.9-57.9V102.1
	C553.3,98,550,94.6,545.8,94.6z M538.3,575.6c0,23.6-19.2,42.9-42.9,42.9H152.9c-23.6,0-42.9-19.2-42.9-42.9v-93.4
	c20,29.9,57.8,50.5,100.1,50.5h228.2c42.3,0,80.1-20.6,100.1-50.5L538.3,575.6L538.3,575.6z"/>
<g>
	<defs>
		<path id="SVGID_1_" d="M146.3,485.3c17.3,14.3,40.5,22.4,63.8,22.4h228.2c23.3,0,46.5-8.2,63.8-22.4c16.9-14,26.3-32,26.3-50.7
			V220.4H435H120v214.2C120,453.3,129.4,471.3,146.3,485.3z"/>
	</defs>
	<use xlink:href="#SVGID_1_"  style="overflow:visible;fill:#FFFFFF;"/>
	<clipPath id="SVGID_2_">
		<use xlink:href="#SVGID_1_"  style="overflow:visible;"/>
	</clipPath>
	<g id="liquid" class="st1">
		<rect x="120" y="220.4" class="st0" width="408.3" height="287.4"/>
	</g>
</g>
</svg>
