<?xml version="1.0" encoding="utf-8"?>
<!-- Generator: Adobe Illustrator 23.0.3, SVG Export Plug-In . SVG Version: 6.00 Build 0)  -->
<svg version="1.1" id="Calque_1" xmlns="http://www.w3.org/2000/svg" xmlns:xlink="http://www.w3.org/1999/xlink" x="0px" y="0px"
	 viewBox="0 0 650 650" style="enable-background:new 0 0 650 650;" xml:space="preserve">
<style type="text/css">
	.st0{fill:#FFFFFF;}
	.st1{clip-path:url(#SVGID_2_);fill:#FFFFFF;}
</style>
<path class="st0" d="M349.6,415.2c11.1-14,25.2-24.8,40.8-31.1c25.6-10.4,88.1-42.3,115.2-113.7c23.9-62.8,14.1-139.1-29.2-226.9
	c-1.8-3.7-6.3-5.2-10-3.4c-3.7,1.8-5.2,6.3-3.4,10c18.4,37.3,30.5,72.4,36.3,105H213.4c-4.1,0-7.5,3.4-7.5,7.5s3.4,7.5,7.5,7.5
	h288.2c4.2,34.7,0.9,66.5-9.9,95c-25.1,65.9-83.1,95.4-106.9,105.1c-18,7.3-34.3,19.7-46.9,35.8l-13.6,17.3l-13.6-17.3
	c-12.7-16.1-28.9-28.4-46.9-35.8c-23.8-9.7-81.8-39.2-106.9-105.1c-22.3-58.7-12.7-131,28.6-215c1.8-3.7,0.3-8.2-3.4-10
	c-3.7-1.8-8.2-0.3-10,3.4c-43.3,87.8-53.1,164.2-29.2,226.9C169.9,341.8,232.4,373.6,258,384c15.6,6.4,29.7,17.1,40.8,31.1
	l17.9,22.7v105.7c-29.2,55.3-124,74.9-124.9,75.1c-3.8,0.8-6.4,4.3-6,8.1s3.6,6.8,7.5,6.8h261.9c3.9,0,7.1-3,7.5-6.8s-2.3-7.4-6.1-8
	c-0.3,0-27.2-5-56.4-17.2c-25.8-10.8-58.5-29.4-68.4-57.3V437.9L349.6,415.2z M402.2,618.5H242.6c2.6-1,5.1-2.1,7.8-3.2
	c33.6-14.6,58-32.7,72.9-53.8C339.5,589.2,373.1,607.4,402.2,618.5z"/>
<g>
	<defs>
		<path id="SVGID_1_" d="M381,360.9c22.6-9.2,77.6-37.2,101.3-99.4c9.3-24.4,12.7-51.8,10.3-81.4L155.9,180
			c-2.5,29.7,0.9,57.1,10.2,81.5c23.7,62.2,78.7,90.2,101.3,99.4c19.6,8,37.3,21.4,51,38.8l5.8,7.3l5.8-7.3
			C343.7,382.3,361.4,368.9,381,360.9z"/>
	</defs>
	<clipPath id="SVGID_2_">
		<use xlink:href="#SVGID_1_"  style="overflow:visible;"/>
	</clipPath>
	<rect id="liquid" x="102.8" y="411.6" class="st1" width="444.4" height="229.1"/>
</g>
</svg>
