<?xml version="1.0" encoding="utf-8"?>
<!-- Generator: Adobe Illustrator 23.0.3, SVG Export Plug-In . SVG Version: 6.00 Build 0)  -->
<svg version="1.1" id="Calque_1" xmlns="http://www.w3.org/2000/svg" xmlns:xlink="http://www.w3.org/1999/xlink" x="0px" y="0px"
	 viewBox="0 0 650 650" style="enable-background:new 0 0 650 650;" xml:space="preserve">
<style type="text/css">
	.st0{fill:#464646;}
</style>
<path class="st0" d="M349.61,415.19c11.06-14.02,25.17-24.79,40.8-31.14c25.6-10.4,88.07-42.28,115.24-113.66
	c23.88-62.75,14.06-139.1-29.2-226.93c-1.83-3.72-6.33-5.25-10.04-3.41c-3.72,1.83-5.25,6.33-3.42,10.04
	c18.4,37.35,30.5,72.4,36.32,104.98H213.37c-4.14,0-7.5,3.36-7.5,7.5s3.36,7.5,7.5,7.5h288.18c4.21,34.73,0.93,66.47-9.93,94.99
	c-25.07,65.87-83.08,95.44-106.86,105.09c-18.03,7.32-34.26,19.68-46.93,35.75l-13.64,17.29l-13.64-17.29
	c-12.67-16.06-28.9-28.42-46.93-35.75c-23.78-9.66-81.79-39.23-106.86-105.09c-22.34-58.7-12.71-131.02,28.64-214.97
	c1.83-3.72,0.3-8.21-3.41-10.04c-3.72-1.83-8.21-0.3-10.04,3.41c-43.26,87.83-53.08,164.19-29.2,226.93
	c27.17,71.38,89.64,103.26,115.24,113.66c15.63,6.35,29.74,17.11,40.8,31.14l17.91,22.71v105.66
	c-29.17,55.26-123.98,74.89-124.94,75.09c-3.78,0.76-6.37,4.26-5.99,8.09s3.61,6.76,7.46,6.76h261.94c3.88,0,7.12-2.96,7.47-6.83
	s-2.31-7.36-6.13-8.05c-0.27-0.05-27.25-5.03-56.39-17.17c-25.81-10.75-58.45-29.4-68.43-57.35V437.9L349.61,415.19z M402.21,618.5
	H242.58c2.55-1.02,5.15-2.11,7.79-3.25c33.57-14.6,58.03-32.65,72.93-53.81C339.52,589.22,373.13,607.38,402.21,618.5z"/>
</svg>
