<?xml version="1.0" encoding="utf-8"?>
<!-- Generator: Adobe Illustrator 23.0.3, SVG Export Plug-In . SVG Version: 6.00 Build 0)  -->
<svg version="1.1" id="Calque_1" xmlns="http://www.w3.org/2000/svg" xmlns:xlink="http://www.w3.org/1999/xlink" x="0px" y="0px"
	 viewBox="0 0 650 650" style="enable-background:new 0 0 650 650;" xml:space="preserve">
<style type="text/css">
	.st0{fill:#ffffff;}
</style>
<path class="st0" d="M452.59,535.28V49.72c0-4.14-3.36-7.5-7.5-7.5s-7.5,3.36-7.5,7.5v42.87h-153.7c-4.14,0-7.5,3.36-7.5,7.5
	s3.36,7.5,7.5,7.5h153.69v424.76c-13.24,12.65-45.27,15.79-62.83,15.62H273.82c-26.59,0-42.79-4.72-51.69-8.68
	c-6.02-2.68-9.55-5.35-11.33-6.95V49.72c0-4.14-3.36-7.5-7.5-7.5s-7.5,3.36-7.5,7.5v546.06c0,20.8,16.92,37.72,37.72,37.72h181.34
	c20.8,0,37.72-16.92,37.72-37.72v-60.3C452.59,535.41,452.59,535.35,452.59,535.28z M414.86,618.5H233.52
	c-12.53,0-22.72-10.19-22.72-22.72v-45.3c11.26,6.12,30.74,12.5,63.03,12.5H374.6c0.39,0,0.86,0.01,1.38,0.01
	c9.67,0,40.54-0.97,61.61-12.42v45.21C437.59,608.31,427.39,618.5,414.86,618.5z"/>
</svg>
