<?xml version="1.0" encoding="utf-8"?>
<!-- Generator: Adobe Illustrator 23.0.3, SVG Export Plug-In . SVG Version: 6.00 Build 0)  -->
<svg version="1.1" id="Calque_1" xmlns="http://www.w3.org/2000/svg" xmlns:xlink="http://www.w3.org/1999/xlink" x="0px" y="0px"
	 viewBox="0 0 650 650" style="enable-background:new 0 0 650 650;" xml:space="preserve">
<style type="text/css">
	.st0{fill:#464646;}
</style>
<path class="st0" d="M521.28,46.91c-4.11-0.35-7.75,2.72-8.1,6.85l-19.54,232.88c-0.3,2.64-1.06,5.18-2.25,7.56l-15.67,31.33h-8
	c-23,0-44.76,8.81-61.28,24.81c-6.11,5.91-11.25,12.58-15.35,19.78c-3.22-8.81-8.28-16.94-15.02-23.91
	c-12.91-13.34-30.25-20.68-48.82-20.68h-6.11c-18.57,0-35.9,7.34-48.82,20.68c-6.74,6.97-11.8,15.09-15.02,23.91
	c-4.1-7.21-9.24-13.88-15.35-19.79c-16.52-16-38.28-24.81-61.28-24.81h-8L157,294.19c-1.19-2.38-1.95-4.92-2.25-7.56l-10.41-124
	h265.48c4.14,0,7.5-3.36,7.5-7.5s-3.36-7.5-7.5-7.5H143.09l-7.88-93.87c-0.35-4.13-3.96-7.19-8.1-6.85
	c-4.13,0.35-7.19,3.97-6.85,8.1L139.81,288c0.01,0.07,0.01,0.13,0.02,0.2c0.49,4.44,1.75,8.71,3.75,12.71l17.13,34.25L188,598.84
	c2,19.29,18.13,33.84,37.52,33.84h197.35c19.4,0,35.53-14.55,37.52-33.84l27.28-263.69l17.13-34.25c2-3.99,3.26-8.27,3.75-12.71
	c0.01-0.07,0.01-0.13,0.02-0.2L528.12,55C528.47,50.88,525.4,47.25,521.28,46.91z M445.47,597.3c-1.2,11.62-10.92,20.39-22.6,20.39
	H225.52c-11.68,0-21.4-8.76-22.6-20.39l-26.56-256.78h4.32c19.08,0,37.14,7.31,50.85,20.58c13.71,13.27,21.6,31.09,22.21,50.16
	c0.02,0.61,0.12,1.2,0.28,1.77l7.29,162.12c0.19,4.14,3.68,7.37,7.83,7.16c4.14-0.19,7.34-3.69,7.16-7.83l-8.06-179.3
	c-0.47-14.46,4.82-28.14,14.88-38.54s23.57-16.12,38.04-16.12h6.11c14.47,0,27.98,5.72,38.04,16.12
	c10.06,10.39,15.35,24.08,14.88,38.44l-8.06,179.39c-0.19,4.14,3.02,7.64,7.16,7.83c0.12,0.01,0.23,0.01,0.34,0.01
	c3.99,0,7.31-3.14,7.49-7.16l7.28-162.12c0.16-0.57,0.26-1.16,0.28-1.77c0.62-19.07,8.5-36.88,22.21-50.16
	c13.71-13.27,31.77-20.58,50.85-20.58h4.32L445.47,597.3z"/>
</svg>
