<?xml version="1.0" encoding="utf-8"?>
<!-- Generator: Adobe Illustrator 23.0.3, SVG Export Plug-In . SVG Version: 6.00 Build 0)  -->
<svg version="1.1" id="Calque_1" xmlns="http://www.w3.org/2000/svg" xmlns:xlink="http://www.w3.org/1999/xlink" x="0px" y="0px"
	 viewBox="0 0 650 650" style="enable-background:new 0 0 650 650;" xml:space="preserve">
<style type="text/css">
	.st0{fill:#FFFFFF;}
	.st1{clip-path:url(#SVGID_2_);fill:#FFFFFF;}
</style>
<path class="st0" d="M538.9,19.6c-4.1-0.5-7.9,2.4-8.4,6.5l-70.6,570.2c-1.4,12.1-11.6,21.3-23.8,21.3H209.7
	c-12.2,0-22.4-9.1-23.8-21.4L121.7,76.3h279.8c4.1,0,7.5-3.4,7.5-7.5s-3.4-7.5-7.5-7.5H119.8l-4.4-35.2c-0.5-4.1-4.2-7-8.4-6.5
	s-7,4.2-6.5,8.4l70.5,570c2.2,19.7,18.8,34.6,38.7,34.6h226.4c19.9,0,36.5-14.9,38.7-34.5l70.6-570.1C546,23.8,543,20.1,538.9,19.6z
	"/>
<g>
	<defs>
		<path id="SVGID_1_" d="M196,595.1L196,595.1c0.8,7.2,6.7,12.5,13.8,12.5h226.4c7.1,0,13-5.3,13.8-12.4l0-0.1l0-0.1l63-508.9
			L133,86.3L196,595.1L196,595.1z"/>
	</defs>
	<clipPath id="SVGID_2_">
		<use xlink:href="#SVGID_1_"  style="overflow:visible;"/>
	</clipPath>
	<rect id="liquid" x="111.2" y="76.1" class="st1" width="423.7" height="541.4"/>
</g>
</svg>
