<?xml version="1.0" encoding="utf-8"?>
<!-- Generator: Adobe Illustrator 23.0.3, SVG Export Plug-In . SVG Version: 6.00 Build 0)  -->
<svg version="1.1" id="Calque_1" xmlns="http://www.w3.org/2000/svg" xmlns:xlink="http://www.w3.org/1999/xlink" x="0px" y="0px"
	 viewBox="0 0 650 650" style="enable-background:new 0 0 650 650;" xml:space="preserve">
<style type="text/css">
	.st0{fill:#464646;}
</style>
<path class="st0" d="M545.83,94.62c-4.14,0-7.5,3.36-7.5,7.5v332.46c0,21.77-10.62,42.53-29.91,58.44
	c-19.05,15.72-44.62,24.73-70.15,24.73H210.11c-25.53,0-51.1-9.01-70.15-24.73c-19.29-15.92-29.91-36.67-29.91-58.44V210.37h324.96
	c4.14,0,7.5-3.36,7.5-7.5s-3.36-7.5-7.5-7.5H110.05v-93.25c0-4.14-3.36-7.5-7.5-7.5s-7.5,3.36-7.5,7.5v473.51
	c0,31.91,25.96,57.87,57.87,57.87h342.54c31.91,0,57.87-25.96,57.87-57.87V102.12C553.33,97.98,549.98,94.62,545.83,94.62z
	 M538.33,575.63c0,23.64-19.23,42.87-42.87,42.87H152.93c-23.64,0-42.87-19.23-42.87-42.87v-93.38
	c19.99,29.86,57.8,50.5,100.06,50.5h228.16c42.26,0,80.07-20.64,100.06-50.5L538.33,575.63L538.33,575.63z"/>
</svg>
