<?xml version="1.0" encoding="utf-8"?>
<!-- Generator: Adobe Illustrator 23.0.3, SVG Export Plug-In . SVG Version: 6.00 Build 0)  -->
<svg version="1.1" id="Calque_1" xmlns="http://www.w3.org/2000/svg" xmlns:xlink="http://www.w3.org/1999/xlink" x="0px" y="0px"
	 viewBox="0 0 650 650" style="enable-background:new 0 0 650 650;" xml:space="preserve">
<style type="text/css">
	.st0{fill:#FFFFFF;}
	.st1{clip-path:url(#SVGID_2_);}
</style>
<path class="st0" d="M546.5,106.2c2.7-3.2,2.3-7.9-0.9-10.6c-3.2-2.7-7.9-2.3-10.6,0.9l-40.4,47.7H238.6c-4.1,0-7.5,3.4-7.5,7.5
	s3.4,7.5,7.5,7.5H482L319.3,351.5L113.4,96.6c-2.6-3.2-7.3-3.7-10.6-1.1s-3.7,7.3-1.1,10.6l209.9,259.9v176.9
	c-29.2,55.3-124,74.9-124.9,75.1c-3.8,0.8-6.4,4.3-6,8.1c0.4,3.8,3.6,6.8,7.5,6.8h261.9c3.9,0,7.1-3,7.5-6.8s-2.3-7.4-6.1-8
	c-0.3,0-27.2-5-56.4-17.2c-25.8-10.8-58.5-29.4-68.4-57.3V366L546.5,106.2z M397.2,617.7H237.5c2.6-1,5.1-2.1,7.8-3.2
	c33.6-14.6,58-32.7,72.9-53.8C334.5,588.4,368.1,606.6,397.2,617.7z"/>
<g>
	<defs>
		<polygon id="SVGID_1_" points="460.4,169.2 184.9,169.2 319.5,335.8 		"/>
	</defs>
	<clipPath id="SVGID_2_">
		<use xlink:href="#SVGID_1_"  style="overflow:visible;"/>
	</clipPath>
	<g id="liquid" class="st1">
		<rect x="156.6" y="169.2" class="st0" width="325.4" height="166.6"/>
	</g>
</g>
</svg>
