<?xml version="1.0" encoding="utf-8"?>
<!-- Generator: Adobe Illustrator 23.0.3, SVG Export Plug-In . SVG Version: 6.00 Build 0)  -->
<svg version="1.1" id="Calque_1" xmlns="http://www.w3.org/2000/svg" xmlns:xlink="http://www.w3.org/1999/xlink" x="0px" y="0px"
	 viewBox="0 0 650 650" style="enable-background:new 0 0 650 650;" xml:space="preserve">
<style type="text/css">
	.st0{fill:#FFFFFF;}
	.st1{clip-path:url(#SVGID_2_);fill:#FFFFFF;}
</style>
<path class="st0" d="M521.3,46.9c-4.1-0.3-7.8,2.7-8.1,6.8l-19.5,232.9c-0.3,2.6-1.1,5.2-2.2,7.6l-15.7,31.3h-8
	c-23,0-44.8,8.8-61.3,24.8c-6.1,5.9-11.2,12.6-15.4,19.8c-3.2-8.8-8.3-16.9-15-23.9c-12.9-13.3-30.2-20.7-48.8-20.7h-6.1
	c-18.6,0-35.9,7.3-48.8,20.7c-6.7,7-11.8,15.1-15,23.9c-4.1-7.2-9.2-13.9-15.4-19.8c-16.5-16-38.3-24.8-61.3-24.8h-8L157,294.2
	c-1.2-2.4-1.9-4.9-2.2-7.6l-10.4-124h265.5c4.1,0,7.5-3.4,7.5-7.5s-3.4-7.5-7.5-7.5H143.1l-7.9-93.9c-0.4-4.1-4-7.2-8.1-6.8
	c-4.1,0.3-7.2,4-6.8,8.1l19.6,233c0,0.1,0,0.1,0,0.2c0.5,4.4,1.8,8.7,3.8,12.7l17.1,34.2L188,598.8c2,19.3,18.1,33.8,37.5,33.8
	h197.3c19.4,0,35.5-14.5,37.5-33.8l27.3-263.7l17.1-34.2c2-4,3.3-8.3,3.8-12.7c0-0.1,0-0.1,0-0.2l19.6-233
	C528.5,50.9,525.4,47.2,521.3,46.9z M445.5,597.3c-1.2,11.6-10.9,20.4-22.6,20.4H225.5c-11.7,0-21.4-8.8-22.6-20.4l-26.6-256.8h4.3
	c19.1,0,37.1,7.3,50.8,20.6c13.7,13.3,21.6,31.1,22.2,50.2c0,0.6,0.1,1.2,0.3,1.8l7.3,162.1c0.2,4.1,3.7,7.4,7.8,7.2
	c4.1-0.2,7.3-3.7,7.2-7.8l-8.1-179.3c-0.5-14.5,4.8-28.1,14.9-38.5s23.6-16.1,38-16.1h6.1c14.5,0,28,5.7,38,16.1
	c10.1,10.4,15.4,24.1,14.9,38.4l-8.1,179.4c-0.2,4.1,3,7.6,7.2,7.8c0.1,0,0.2,0,0.3,0c4,0,7.3-3.1,7.5-7.2l7.3-162.1
	c0.2-0.6,0.3-1.2,0.3-1.8c0.6-19.1,8.5-36.9,22.2-50.2c13.7-13.3,31.8-20.6,50.9-20.6h4.3L445.5,597.3z"/>
<g>
	<defs>
		<path id="SVGID_1_" d="M435.5,596.3c-0.7,6.5-6.1,11.4-12.7,11.4H225.5c-6.5,0-12-4.9-12.7-11.4l-25.4-245.4
			c13.9,1.5,26.9,7.5,37.1,17.4c11.8,11.5,18.6,26.8,19.2,43.3c0,0.9,0.1,1.9,0.3,2.8l7.2,161.2c0.4,9.4,8.1,16.7,17.4,16.7
			c0.3,0,0.6,0,0.8,0c9.6-0.4,17.1-8.6,16.7-18.3l-8.1-179.2c-0.4-11.7,3.9-22.8,12.1-31.2c8.2-8.4,19.1-13.1,30.9-13.1h6.1
			c11.7,0,22.7,4.6,30.9,13.1c8.2,8.4,12.4,19.5,12.1,31.1L362.1,574c-0.4,9.6,7,17.8,16.5,18.3c0.4,0,0.8,0,0.9,0
			c9.4,0,17.1-7.3,17.5-16.7l7.2-161.2c0.2-0.9,0.3-1.9,0.3-2.8c0.5-16.5,7.3-31.8,19.2-43.3c10.2-9.9,23.2-15.9,37.1-17.4
			L435.5,596.3z M409.8,172.6H155.2l9.5,113c0.2,1.4,0.6,2.8,1.2,4.1l12.9,25.8h1.8c25.6,0,49.8,9.8,68.2,27.6
			c2.5,2.4,4.8,4.9,7,7.6c2.7-4.1,5.7-7.9,9.2-11.4c14.8-15.3,34.7-23.7,56-23.7h6.1c21.3,0,41.2,8.4,56,23.7
			c3.4,3.6,6.5,7.4,9.2,11.5c2.2-2.6,4.6-5.2,7-7.6c18.4-17.8,42.6-27.6,68.2-27.6h1.8l12.9-25.8c0.6-1.3,1.1-2.7,1.2-4.1l9.5-113
			H409.8z"/>
	</defs>
	<use xlink:href="#SVGID_1_"  style="overflow:visible;fill:#FFFFFF;"/>
	<clipPath id="SVGID_2_">
		<use xlink:href="#SVGID_1_"  style="overflow:visible;"/>
	</clipPath>
	<rect x="155.2" y="172.6" class="st1" width="338" height="435.1"/>
</g>
</svg>
