<?xml version="1.0" encoding="utf-8"?>
<!-- Generator: Adobe Illustrator 23.0.3, SVG Export Plug-In . SVG Version: 6.00 Build 0)  -->
<svg version="1.1" id="Calque_1" xmlns="http://www.w3.org/2000/svg" xmlns:xlink="http://www.w3.org/1999/xlink" x="0px" y="0px"
	 viewBox="0 0 650 650" style="enable-background:new 0 0 650 650;" xml:space="preserve">
<style type="text/css">
	.st0{fill:#FFFFFF;}
	.st1{clip-path:url(#SVGID_2_);fill:#FFFFFF;}
</style>
<path class="st0" d="M452.6,535.3V49.7c0-4.1-3.4-7.5-7.5-7.5s-7.5,3.4-7.5,7.5v42.9H283.9c-4.1,0-7.5,3.4-7.5,7.5s3.4,7.5,7.5,7.5
	h153.7v424.8c-13.2,12.7-45.3,15.8-62.8,15.6H273.8c-26.6,0-42.8-4.7-51.7-8.7c-6-2.7-9.6-5.3-11.3-7V49.7c0-4.1-3.4-7.5-7.5-7.5
	s-7.5,3.4-7.5,7.5v546.1c0,20.8,16.9,37.7,37.7,37.7h181.3c20.8,0,37.7-16.9,37.7-37.7v-60.3C452.6,535.4,452.6,535.3,452.6,535.3z
	 M414.9,618.5H233.5c-12.5,0-22.7-10.2-22.7-22.7v-45.3c11.3,6.1,30.7,12.5,63,12.5h100.8c0.4,0,0.9,0,1.4,0c9.7,0,40.5-1,61.6-12.4
	v45.2C437.6,608.3,427.4,618.5,414.9,618.5z"/>
<g>
	<defs>
		<path id="SVGID_1_" d="M220.8,117.6v409.7c1.4,0.8,3.1,1.8,5.4,2.8c8,3.6,22.8,7.8,47.6,7.8h100.9h0l0,0c0.4,0,0.8,0,1.3,0
			c17.9,0,40.5-3.3,51.5-10.4V117.6H283.9H220.8z"/>
	</defs>
	<use xlink:href="#SVGID_1_"  style="overflow:visible;fill:#FFFFFF;"/>
	<clipPath id="SVGID_2_">
		<use xlink:href="#SVGID_1_"  style="overflow:visible;"/>
	</clipPath>
	<rect id="liquid" x="218.2" y="117.6" class="st1" width="212" height="420.4"/>
</g>
</svg>
