<?xml version="1.0" encoding="utf-8"?>
<!-- Generator: Adobe Illustrator 23.0.3, SVG Export Plug-In . SVG Version: 6.00 Build 0)  -->
<svg version="1.1" id="Calque_1" xmlns="http://www.w3.org/2000/svg" xmlns:xlink="http://www.w3.org/1999/xlink" x="0px" y="0px"
	 viewBox="0 0 650 650" style="enable-background:new 0 0 650 650;" xml:space="preserve">
<style type="text/css">
	.st0{fill:#ffffff;}
</style>
<path class="st0" d="M546.52,106.15c2.68-3.16,2.28-7.89-0.88-10.57c-3.16-2.68-7.9-2.28-10.57,0.88l-40.38,47.72H238.56
	c-4.14,0-7.5,3.36-7.5,7.5s3.36,7.5,7.5,7.5H482l-162.71,192.3L113.42,96.59c-2.6-3.22-7.33-3.72-10.55-1.12s-3.72,7.32-1.12,10.55
	l209.9,259.88v176.85c-29.16,55.26-123.98,74.89-124.94,75.09c-3.78,0.76-6.37,4.26-5.99,8.09c0.38,3.84,3.61,6.76,7.46,6.76h261.94
	c3.88,0,7.12-2.96,7.47-6.83s-2.31-7.36-6.13-8.05c-0.27-0.05-27.25-5.03-56.39-17.17c-25.81-10.75-58.45-29.4-68.43-57.35v-177.3
	L546.52,106.15z M397.17,617.68H237.54c2.55-1.02,5.15-2.11,7.79-3.25c33.57-14.6,58.03-32.65,72.93-53.81
	C334.48,588.4,368.09,606.56,397.17,617.68z"/>
</svg>
