<?xml version="1.0" encoding="utf-8"?>
<!-- Generator: Adobe Illustrator 23.0.3, SVG Export Plug-In . SVG Version: 6.00 Build 0)  -->
<svg version="1.1" id="Calque_1" xmlns="http://www.w3.org/2000/svg" xmlns:xlink="http://www.w3.org/1999/xlink" x="0px" y="0px"
	 viewBox="0 0 650 650" style="enable-background:new 0 0 650 650;" xml:space="preserve">
<style type="text/css">
	.st0{fill:#ffffff;}
</style>
<path class="st0" d="M538.92,19.56c-4.11-0.51-7.86,2.41-8.37,6.52l-70.62,570.23c-1.35,12.12-11.56,21.27-23.76,21.27H209.74
	c-12.2,0-22.41-9.14-23.77-21.36L121.65,76.29h279.82c4.14,0,7.5-3.36,7.5-7.5s-3.36-7.5-7.5-7.5H119.8l-4.36-35.21
	c-0.51-4.11-4.25-7.03-8.36-6.52s-7.03,4.25-6.52,8.36l70.51,570.05c2.19,19.73,18.82,34.61,38.67,34.61h226.44
	c19.85,0,36.48-14.88,38.66-34.52l70.6-570.14C545.95,23.81,543.03,20.07,538.92,19.56z"/>
</svg>
