<svg xmlns="http://www.w3.org/2000/svg" viewBox="0 0 162.26 566.43"><title>bouteillesFichier 4</title><g id="Calque_2" data-name="Calque 2"><g id="Calque_2-2" data-name="Calque 2"><g id="bouteille-3"><path d="M161.35,531.87a64.92,64.92,0,0,1-6.66-11,4.32,4.32,0,0,0-.27-3,4.21,4.21,0,0,0-1.77-1.8c-4.72-12-6.73-26.21-5.87-42.68l.73-287.51a4.47,4.47,0,0,0-1.79-3.58c-19.31-14.44-31.56-28.54-32.87-53.64l7.38-113.53a4.47,4.47,0,0,0-.94-3C114.23,5.6,103.56,1.79,86.76.49A3.18,3.18,0,0,0,84.71.05c-1.21,0-2.42.06-3.58.11S78.76.08,77.54.05a3.26,3.26,0,0,0-2,.44C58.7,1.79,48,5.6,43,12.08a4.47,4.47,0,0,0-.94,3l7.38,113c-1.32,25.61-13.56,39.71-32.88,54.15a4.49,4.49,0,0,0-1.78,3.58l.74,287.74c.94,17.94-1.53,33.34-7.33,46-.08.12-.2.2-.27.33a4.57,4.57,0,0,0-.19.63A64.91,64.91,0,0,1,.91,531.87a4.44,4.44,0,0,0,0,5.33l13.06,17.55a35.76,35.76,0,0,0,12,7.31c.08.12.11.26.2.37a4.32,4.32,0,0,0,5.05,1.32c8.45,2.2,18.24,2.68,29.33,2.68,3.24,0,6.6,0,10-.07,6.76-.07,14.13-.09,21,0,14.18.15,27.17.23,38.21-2.42a4.8,4.8,0,0,0,.83.14,4.39,4.39,0,0,0,2.91-1.23,38.87,38.87,0,0,0,15.42-8.69l12.54-17A4.46,4.46,0,0,0,161.35,531.87ZM104.4,121.68H57.89l-.52-8h47.55ZM58,130.6h46.18c0,.48.12.92.16,1.4H57.85C57.9,131.53,58,131.08,58,130.6ZM81.13,9.08c18.59.8,26.66,4.19,30.08,7.35l-5.71,88.3H56.79l-5.74-88.3C54.48,13.27,62.54,9.88,81.13,9.08ZM56.58,140.92h49a66.75,66.75,0,0,0,9.56,23.35c0,.1-.08.18-.1.28-2.09,1.87-13.52,5-33.92,5s-31.84-3.18-33.93-5a2.13,2.13,0,0,0-.11-.33A67.57,67.57,0,0,0,56.58,140.92Zm-14.9,30.61c3.2,2.51,8.11,3.84,12.2,4.68a142.28,142.28,0,0,0,27.25,2.3c12.51,0,31.6-1.08,39.33-7.09a112.34,112.34,0,0,0,18.14,16.65l-.73,285.06c-.89,17.05,1.17,32,6,44.93l-27.38,13.42a69.46,69.46,0,0,1-2.89-24.17l1.47-278.62c.2-11.44-3.5-21.54-10.41-28.44A32.21,32.21,0,0,0,80.31,191c-.1,0-.19.06-.29.07s-.18-.07-.28-.07a32.24,32.24,0,0,0-24.36,9.26c-6.91,6.9-10.61,17-10.41,28.39l1.48,278.83A67.62,67.62,0,0,1,43,533.3L17.64,520c5.39-13.29,7.69-28.91,6.76-46.67l-.74-285.29A111.23,111.23,0,0,0,41.68,171.53Zm12.21,57c-.16-9,2.6-16.81,7.78-22,4.39-4.38,10.34-6.68,17.26-6.68h.72c.13,0,.24-.06.37-.07s.24.07.37.07h.09c7.26,0,13.37,2.16,17.89,6.68,5.19,5.16,7.95,13,7.79,22l-1.46,278.5a77.67,77.67,0,0,0,3.21,26.7H52.15a77.31,77.31,0,0,0,3.21-26.53ZM10,534.52c1.4-2,2.7-4.19,3.91-6.4l25.43,13.33A52,52,0,0,1,29.11,554a25.47,25.47,0,0,1-8.53-5.1Zm81.6,22.94c-3.16,0-6.46-.1-9.71-.09H80.39c-3.39.13-6.75,0-10,.09-11.91.13-22.41.19-31.14-1.07a59.62,59.62,0,0,0,9.3-13.69h62.92A59.3,59.3,0,0,0,121,556.62C112.53,557.66,102.64,557.58,91.57,557.46Zm50.64-9.19a28.17,28.17,0,0,1-10.85,6.08,51.07,51.07,0,0,1-11.47-14.61l27.57-13.52a73.29,73.29,0,0,0,4.84,8.31Z"/></g></g></g></svg>