<svg xmlns="http://www.w3.org/2000/svg" viewBox="0 0 265.51 471.6"><title>bouteillesFichier 9</title><g id="Calque_2" data-name="Calque 2"><g id="Calque_2-2" data-name="Calque 2"><g id="bouteille-8"><path d="M265.47,208.52c1-22.79-17.63-58.77-54.06-64.23l-37.15-4.21c-6.35-1.23-9.46-4.29-10.34-9.44v-4h6a5.16,5.16,0,1,0,0-10.31h-6V76.06h2.52a5.15,5.15,0,0,0,5.16-5.16V18a5.18,5.18,0,0,0-.74-2.68C166.11,7.52,153.65-.22,132.69,0c-20.94-.18-33.29,7.53-38,15.31A5.1,5.1,0,0,0,93.9,18V70.9a5.16,5.16,0,0,0,5.16,5.16h2.53l0,40.25H96.29a5.16,5.16,0,1,0,0,10.31h5.36v3.22c-.93,5.95-4,9-10,10.18l-37.73,4.29C17.66,149.75-.95,185.73,0,208.3v204c.17,16.79,2,33.94,13.88,45.61,9.41,9.21,23.79,13.69,43.88,13.69H207.66c20.15,0,34.53-4.49,43.94-13.7,11.92-11.67,13.71-28.81,13.88-45.65ZM159.85,65.74a5.27,5.27,0,0,0-1-.2H107.6a5.17,5.17,0,0,0-1,.2h-.35c17.37-10,35.3-10,54.61,0ZM111.9,75.85h41.71l0,24.89H111.9Zm17-65.54a2.3,2.3,0,0,0,.26,0c1.24-.07,2.35,0,3.51-.05s2.32,0,3.58.05c.11,0,.19,0,.29,0,13.94.64,21.68,5.53,24.7,9.3v34.9c-19.75-8.95-38.89-8.74-57.07.61V19.61C107.25,15.83,115,11,129,10.31Zm-17,100.74h41.75v5.26H111.9ZM55.27,154.54l37.95-4.34c10.58-2,17-8.54,18.68-19.56v-4h41.77v4.82c1.6,10.23,8,16.72,19,18.83l37.37,4.24c31.37,4.71,45.82,36.88,45.09,53.79V410.94H10.36V208.07C9.62,191.39,24.07,159.22,55.27,154.54Zm189.11,296c-7.59,7.43-19.95,10.88-38.25,10.74H59.32c-18,.32-30.59-3.3-38.18-10.74-7.33-7.17-9.7-17.92-10.45-29.29H254.82C254.07,432.64,251.7,443.37,244.38,450.54Z"/><path d="M75.81,381.56h112a5.15,5.15,0,0,0,5.16-5.15v-112a5.15,5.15,0,0,0-5.16-5.15h-112a5.15,5.15,0,0,0-5.16,5.15v112A5.15,5.15,0,0,0,75.81,381.56Zm5.16-112H182.66V371.25H81Z"/></g></g></g></svg>