<svg xmlns="http://www.w3.org/2000/svg" viewBox="0 0 224.11 474.01"><title>bouteillesFichier 8</title><g id="Calque_2" data-name="Calque 2"><g id="Calque_2-2" data-name="Calque 2"><g id="bouteille-7"><path d="M223.42,421.5c-2.57-15.92-4.5-31.63-6-47.2a4.36,4.36,0,0,0-.13-1.21c-5.58-58-4-113.52,4.94-165.45a4.64,4.64,0,0,0-2.2-4.77L145.7,158.74V117h6.13a4.64,4.64,0,0,0,0-9.28H133.7s0-.09,0-.15V93H153a4.63,4.63,0,0,0,4.64-4.63V4.64A4.64,4.64,0,0,0,153,0H71.13a4.64,4.64,0,0,0-4.64,4.64V88.4A4.63,4.63,0,0,0,71.13,93H90.42v14.51c0,.06,0,.1,0,.15H72.32a4.64,4.64,0,1,0,0,9.28h6.13v41.77L4.14,202.87a4.64,4.64,0,0,0-2.2,4.77C10.88,259.53,12.46,315,6.87,373.1a5.31,5.31,0,0,0-.12,1.14c-1.52,15.65-3.46,31.45-6,47.47-2.26,19.43.87,33.16,9.57,42C17.06,470.55,27.1,474,39.92,474a83.56,83.56,0,0,0,8.47-.46h126.9A86.64,86.64,0,0,0,184,474c13.06,0,23.07-3.44,29.83-10.31C222.45,455,225.67,440.86,223.42,421.5Zm-103.23-6.29H67.29c-28.74,1.54-46.43-12.56-51.22-40.73,5.44-56.13,4.2-109.92-3.77-160.51,61-19.34,126.36-19.26,199.51.26-7.93,50.56-9.15,104.29-3.73,160.26-4.79,28.15-22.53,42.23-51.47,40.72Zm79.92-213.36c-62.46-14.74-119.52-15.38-173.24-1.68L84.38,166h55.39ZM104,9.27h44.42v9.88H75.77V9.27ZM75.77,28.42h72.61V83.76H75.77ZM99.7,107.54V93h24.75v14.51c0,.06,0,.1,0,.15H99.67S99.7,107.6,99.7,107.54Zm.67,9.43h36v39.78H87.74V117Zm106.89,340.2c-6.13,6.21-16.58,8.6-31.5,7.1H47.92c-14.47,1.53-24.9-.91-31-7.12C10.38,450.58,8,439,9.9,423c1.4-8.73,2.62-17.4,3.72-26,9.28,18,26.17,27.67,49.23,27.67,1.54,0,3.1-.05,4.69-.13h88.83c1.6.08,3.18.12,4.73.12,23.22,0,40.14-9.63,49.43-27.67,1.09,8.57,2.3,17.17,3.7,25.84C216.12,439,213.77,450.57,207.26,457.17Z"/><path d="M161.92,392.33V251.13a4.63,4.63,0,0,0-4.64-4.63H65.15a4.64,4.64,0,0,0-4.65,4.63v141.2A4.65,4.65,0,0,0,65.15,397h92.13A4.64,4.64,0,0,0,161.92,392.33Zm-9.28-4.64H69.79V255.77h82.85Z"/></g></g></g></svg>