<svg xmlns="http://www.w3.org/2000/svg" viewBox="0 0 199.83 568.19"><title>bouteillesFichier 10</title><g id="Calque_2" data-name="Calque 2"><g id="Calque_2-2" data-name="Calque 2"><g id="bouteille-9"><path d="M194.5,363.6c-5.06-25.27-4.47-50.36-3.91-74.62.27-12.05.57-24.51.14-36.44,0-18.72-6.71-35.44-20.84-51.34l-32-32V5.19A5.19,5.19,0,0,0,132.72,0H100.51a5.6,5.6,0,0,0-.59.12c-.21,0-.39-.12-.6-.12H67.11a5.19,5.19,0,0,0-5.19,5.19v164L29.73,201.42C15.81,217.1,9.07,233.82,9.11,252.35,8.67,264.47,9,276.93,9.24,289c.56,24.26,1.15,49.35-4,74.91-6.59,46.88-7,97.61-1.3,159.75C6.9,550,18.49,562,46.7,568.08a5,5,0,0,0,1.09.11H152a5,5,0,0,0,1.09-.11c28.21-6.05,39.8-18.09,42.73-44.54C201.55,461.5,201.14,410.77,194.5,363.6ZM72.3,10.38h27c.21,0,.39-.1.6-.12a5.6,5.6,0,0,0,.59.12h27V23.19H72.3Zm0,23.19h55.23v7.65H72.3Zm39.86,20.61v27H86.47v-27ZM76.09,51.6V86.35a5.19,5.19,0,0,0,5.19,5.19h36.07a5.19,5.19,0,0,0,5.2-5.19V51.6h5V163.91H72.3V51.6Zm75.4,506.22H48.34a87.59,87.59,0,0,1-10.69-3.05c45.29-16.48,86.19-16.48,124.52,0A86.89,86.89,0,0,1,151.49,557.82Zm34-35.32c-1.4,12.53-4.75,20.52-11.7,26.11a4.54,4.54,0,0,0-.56-.42c-44.69-21.57-94.35-21.62-147.62-.14a2.14,2.14,0,0,0-.19.13c-6.59-5.56-9.81-13.43-11.17-25.58-5.61-61.23-5.21-111.2,1.22-157,5.27-26.39,4.68-52.06,4.1-76.89-.29-12.45-.57-24.2-.14-36.22a60.36,60.36,0,0,1,5.37-24.81c12.29,17.07,43.92,19,64.44,19,3.46,0,6.62-.05,9.31-.1l4.6-.06a5.19,5.19,0,0,0,0-10.38h0l-4.75.06c-16.77.29-61.3,1.07-67.47-19.35a79.73,79.73,0,0,1,6.35-8.35L70.78,175a5.26,5.26,0,0,0,1.11-1.66h56.05a5.26,5.26,0,0,0,1.11,1.66l33.28,33.28A82.43,82.43,0,0,1,170.42,219c-4.48,8.87-16.29,14.63-32.29,15.48a5.19,5.19,0,0,0,.27,10.37h.27c16.76-.89,29.73-6.37,37.22-15.33a60.63,60.63,0,0,1,4.47,23.21c.42,11.82.14,23.57-.15,36-.58,24.83-1.17,50.5,4,76.6C190.74,411.4,191.14,461.37,185.54,522.5Z"/><path d="M166.31,439.3H31a5.19,5.19,0,1,0,0,10.37H166.31a5.19,5.19,0,1,0,0-10.37Z"/><path d="M32.33,431.64H162.44a5.19,5.19,0,0,0,5.19-5.19V398.11a5.19,5.19,0,0,0-5.19-5.19H32.33a5.19,5.19,0,0,0-5.2,5.19v28.34A5.19,5.19,0,0,0,32.33,431.64Zm5.19-28.34H157.25v18H37.52Z"/><path d="M78.7,345.32h41.23a5.18,5.18,0,0,0,5.19-5.18V310.51a5.19,5.19,0,0,0-5.19-5.19H78.7a5.19,5.19,0,0,0-5.19,5.19v29.63A5.19,5.19,0,0,0,78.7,345.32Zm5.2-29.63h30.84V335H83.9Z"/></g></g></g></svg>