<svg xmlns="http://www.w3.org/2000/svg" viewBox="0 0 150.9 564.31"><title>bouteillesFichier 3</title><g id="Calque_2" data-name="Calque 2"><g id="Calque_2-2" data-name="Calque 2"><g id="bouteille-2"><path d="M147.15,522.89c-2.64-.57-8.12-1.78-5.81-14.21a4.76,4.76,0,0,0-3.43-5.47c-2.85-.78-5.79-2.29-4.39-11.19V476.37s0-.06,0-.1v-13.1l11-141.83c3.61-24.74,5.62-46.47,6-65.32a4.63,4.63,0,0,0,.34-2c-.06-.86-.24-1.65-.31-2.51.3-38.3-6.34-64.09-20.11-78-16.87-16.17-19.76-32.47-19.85-62.89V4.78A4.77,4.77,0,0,0,105.85,0H45.05a4.78,4.78,0,0,0-4.78,4.78V110.57c-.09,30.44-3,46.74-19.94,63C-.5,194.64-5.07,243,6.33,321l11,141.78,0,13.34c0,.05,0,.09,0,.13s0,.23,0,.35l0,16.17c1.45,8.81-2.24,9.82-4.44,10.42a4.76,4.76,0,0,0-3.43,5.47c2.31,12.43-3.17,13.64-5.81,14.21A4.77,4.77,0,0,0,0,527.55v15.8a4.72,4.72,0,0,0,.12,1.06c3,13.18,10,19.87,20.84,19.9h109c10.82,0,17.83-6.72,20.84-19.9a4.72,4.72,0,0,0,.12-1.06v-15.8A4.77,4.77,0,0,0,147.15,522.89ZM36.76,501.84a72,72,0,0,0,12.8,4.35H24.66a16.64,16.64,0,0,0,2.65-10.29A44.64,44.64,0,0,0,36.76,501.84Zm86.88-6a17.54,17.54,0,0,0,2.67,10.4h-24.7C110.24,504,117.94,500.5,123.64,495.79Zm-104.08,20H131.34a19.42,19.42,0,0,0,2.38,8.61H17.17A19.41,19.41,0,0,0,19.56,515.75ZM49.82,108V102.6h51.26V108Zm0-17.92h51.26v4.66H49.82Zm51.26-9.55H49.82V45.87h51.26Zm-30.77-71h30.77V36.32H49.82V9.55ZM15.81,320C5,245.8,8.79,198.81,27,180.37c19.81-19,22.42-39.2,22.73-65h51.4c0,2.75.1,5.46.2,8.09a4.63,4.63,0,0,0-.27,1.35c0,16.28-7.61,28.53-14.78,31.79-9,4.07-20.69.65-27.17-4.68a4.78,4.78,0,0,0-6.06,7.39,40.17,40.17,0,0,0,24.5,8.61,30.26,30.26,0,0,0,12.69-2.64c5.3-2.41,10.77-7.87,14.72-15.68,3.12,10.95,8.68,21,18.8,30.68,5.82,5.89,10.16,14.67,13,26.27-8.68-14.37-20.8-24.65-35.26-28.66-21.87-6.07-60.75-5.76-72,20.88a4.77,4.77,0,0,0,8.79,3.71C47.55,180.69,83.2,182.69,99,187.08c22.87,6.34,39.11,31.64,42,64.74q-.27,29.1-6,68.46L124,462.8l0,13.34s0,.09,0,.13c0,30.93-97.07,30.93-97.07,0V462.43ZM129.94,554.76H21c-4.24,0-8.9-1.44-11.43-12v-8.89H141.36v8.89C138.82,553.32,134.16,554.76,129.94,554.76Z"/><path d="M72.13,481.52a4.72,4.72,0,0,0,2.92,1.06l.48,0c.25,0,.47-.12.71-.15s.46.12.7.15a3.91,3.91,0,0,0,.49,0,4.74,4.74,0,0,0,2.92-1.06c34.62-9.08,51.55-77,51.59-207.46a4.77,4.77,0,0,0-4.77-4.78H99.48c-.37-10.89-3-29-21.41-31.54a5,5,0,0,0-1.81.14,5.16,5.16,0,0,0-1.85-.14C56,240.26,53.37,258.39,53,269.28H25.3a4.77,4.77,0,0,0-4.77,4.78C20.58,404.53,37.5,472.44,72.13,481.52Zm4.11-8.72c-17-3.09-36.08-28.06-43.23-116.57h86.46C112.31,444.74,93.25,469.71,76.24,472.8Zm43.94-126.12H32.3c-.11-1.55-.22-3.08-.31-4.67h88.5C120.39,343.6,120.28,345.13,120.18,346.68ZM75.7,247.2a3.86,3.86,0,0,0,.54-.19,3.46,3.46,0,0,0,.54.19C87.77,248.7,90,259,90,274.06a4.76,4.76,0,0,0,4.77,4.77h27.58c-.08,19.74-.55,37.57-1.36,53.63H31.46c-.82-16.06-1.29-33.89-1.36-53.63H57.68a4.76,4.76,0,0,0,4.77-4.77C62.45,259,64.7,248.7,75.7,247.2Z"/><path d="M37.11,304.07a4.78,4.78,0,0,0,4.78,4.78h69.49a4.78,4.78,0,0,0,0-9.56H41.89A4.78,4.78,0,0,0,37.11,304.07Z"/></g></g></g></svg>