<svg xmlns="http://www.w3.org/2000/svg" viewBox="0 0 168.59 564.08"><title>bouteillesFichier 5</title><g id="Calque_2" data-name="Calque 2"><g id="Calque_2-2" data-name="Calque 2"><g id="bouteille-4"><path d="M168.59,386a4.52,4.52,0,0,0-.17-.83V346.24A132.69,132.69,0,0,0,163,308.7l-35.2-119.25A349,349,0,0,1,113.5,90.52v-14a12.72,12.72,0,0,0,5.94-5.9,18.71,18.71,0,0,0,1.59-11c-1-7.28-5.33-12.49-10.9-13.9V12C109.66,1.34,94.29.15,85.71,0l-.1,0h-2.8L82.7,0C74.13.16,58.76,1.36,58.29,12.19V45.67A12.83,12.83,0,0,0,52,49.46a18.75,18.75,0,0,0-4.6,10.12c-1.1,7.72,2,14.25,7.53,16.88V90.52a349.39,349.39,0,0,1-14.29,98.93L5.43,308.71A132.56,132.56,0,0,0,0,346.24V541.91C.58,563.56,41.12,563.82,80.39,564c.06,0,.11,0,.18,0h0l2.78,0,2.76,0h0c.06,0,.12,0,.18,0,40.08-.23,81.49-.48,82.07-22.24v-155A4.42,4.42,0,0,0,168.59,386ZM8.7,390.52h151V522.71H8.7ZM90.91,243.7a5,5,0,0,0-.64.26,21.75,21.75,0,0,1-6.06.95,22.64,22.64,0,1,1,7.26-1.32ZM47.34,197.43l16.11,2.39a30.57,30.57,0,0,0-5.21,39.56L36.4,234.49Zm59.05,3.68,15.07-2.41,10.9,36.92L109.81,240a30.78,30.78,0,0,0-3.42-38.91ZM84.21,8.72c14.05.19,17.2,2.9,17.23,3.47v33.2H67v-33C67,11.63,70.16,8.9,84.21,8.72ZM56,60.81a10.13,10.13,0,0,1,2.34-5.41A4,4,0,0,1,62,54c.1,0,.2,0,.3,0s.2.06.31.06h43.16c.11,0,.2,0,.31-.06s.2,0,.3,0a4,4,0,0,1,3.68,1.36,10.13,10.13,0,0,1,2.34,5.41c.37,2.56,0,7.48-3.8,8.12H59.8C56,68.29,55.63,63.37,56,60.81Zm7.62,29.71V77.62H104.8v12.9a358.15,358.15,0,0,0,14.31,100.07l-22.65,3.63a29.48,29.48,0,0,0-20.56-1.28c-.11,0-.19-.09-.3-.11L49.71,189A357.75,357.75,0,0,0,63.62,90.52ZM13.76,311.17l20.17-68.33,40.08,9c.13,0,.26,0,.38,0a28.18,28.18,0,0,0,17.18.76,1.42,1.42,0,0,0,.2,0,4.28,4.28,0,0,0,.87-.09l42.28-8.24,19.74,66.84a124.06,124.06,0,0,1,5.06,35.08v35.24H8.7V346.24A123.94,123.94,0,0,1,13.76,311.17ZM86.21,555.35l-2.83,0-2.8,0c-30.18-.17-71.53-.41-71.88-13.55v-10h151v9.93C159.37,554.93,115.34,555.19,86.21,555.35Z"/><path d="M30.69,431.43H133.81a4.52,4.52,0,0,0,0-9H30.69a4.52,4.52,0,1,0,0,9Z"/><path d="M133.81,448.17H30.69a4.52,4.52,0,0,0,0,9H133.81a4.52,4.52,0,0,0,0-9Z"/></g></g></g></svg>