<svg xmlns="http://www.w3.org/2000/svg" viewBox="0 0 242.85 565.05"><title>bouteillesFichier 13</title><g id="Calque_2" data-name="Calque 2"><g id="Calque_2-2" data-name="Calque 2"><g id="bouteille-11"><path d="M185.2,99.37c-23.58-10-26.8-16.47-26.28-35.4V63h1a6,6,0,1,0,0-12.06h-1V6a6,6,0,0,0-6-6H90a6,6,0,0,0-6,6V51H82A6,6,0,1,0,82,63h2v1.12c.5,18.77-2.72,25.27-26.55,35.36C17.7,118.5-.54,146,0,185.84V525.32c-.37,13.47,3,23.74,9.85,30.51,6.25,6.12,15.27,9.22,26.61,9.22,1,0,2,0,3-.07H203c1.06,0,2.1.08,3.12.08,11.54,0,20.55-3.1,26.8-9.22,6.89-6.77,10.22-17,9.87-30.35V185.92C243.38,146,225.14,118.5,185.2,99.37Zm-73.28-87.3h34.91V19H96V12.07ZM96,31h50.83V51H96Zm50.84,32v.79a66,66,0,0,0,1.41,17.11H94.61A66.2,66.2,0,0,0,96,64V63Zm77.66,484.2c-4.31,4.23-11.34,6.17-21.19,5.7H39.24c-9.32.44-16.59-1.48-20.9-5.71s-6.51-11.58-6.24-21.73V185.76c-.5-35.17,15.09-58.42,50.25-75.27C75.44,105,83.82,99.71,89,93h64.87c5.14,6.71,13.44,11.92,26.38,17.39,35.43,17,51,40.22,50.52,75.47V525.63C231,535.63,228.91,542.88,224.51,547.21Z"/><path d="M125.9,149.84h-9c-43.44,0-69.8,12.94-90.94,44.64a6.14,6.14,0,0,0-1,3.35V520.48a6,6,0,0,0,6,6h180.8a6,6,0,0,0,6-6V197.83a6.14,6.14,0,0,0-1-3.35C195.7,162.78,169.35,149.84,125.9,149.84ZM37.07,308.75H205.78v49.87H37.07Zm79.87-146.84h9c32.32,0,58.35,6.47,79.88,37.77v97H37.07v-97C58.59,168.38,84.62,161.91,116.94,161.91Zm-7,352.54H37.07V370.68H205.78V514.45Z"/></g></g></g></svg>