<?xml version="1.0" encoding="utf-8"?>
<!-- Generator: Adobe Illustrator 23.0.3, SVG Export Plug-In . SVG Version: 6.00 Build 0)  -->
<svg version="1.1" id="Calque_1" xmlns="http://www.w3.org/2000/svg" xmlns:xlink="http://www.w3.org/1999/xlink" x="0px" y="0px"
	 viewBox="0 0 356.5 326.4" style="enable-background:new 0 0 356.5 326.4;" xml:space="preserve">
<style type="text/css">
	.st0{display:none;}
	.st1{fill:none;stroke:#000000;stroke-width:37;stroke-linecap:round;stroke-miterlimit:10;}
</style>
<title>filters</title>
<path class="st0" d="M129.1-61.5c0-46.1-37.4-83.5-83.5-83.5s-83.5,37.4-83.5,83.5c0,39,27,72.8,65,81.4v308.6
	c0,10.2,8.3,18.5,18.5,18.5s18.5-8.3,18.5-18.5V19.9C102.1,11.2,129.1-22.5,129.1-61.5z M45.6-15C20-15-0.9-35.9-0.9-61.5
	S20-108,45.6-108s46.5,20.8,46.5,46.5C92.1-35.9,71.3-15.1,45.6-15z"/>
<path class="st0" d="M194.1,249V-59.5c0-10.2-8.3-18.5-18.5-18.5s-18.5,8.3-18.5,18.5V249c-45,10.2-73.1,55-62.9,99.9
	c10.2,45,55,73.1,99.9,62.9c45-10.2,73.1-55,62.9-99.9C249.9,280.6,225.5,256.2,194.1,249z M175.6,377c-25.7,0-46.5-20.8-46.5-46.5
	s20.8-46.5,46.5-46.5s46.5,20.8,46.5,46.5C222.1,356.1,201.3,376.9,175.6,377z"/>
<path class="st0" d="M389.1-61.5c0-46.1-37.4-83.5-83.5-83.5s-83.5,37.4-83.5,83.5c0,39,27,72.8,65,81.4v308.6
	c0,10.2,8.3,18.5,18.5,18.5s18.5-8.3,18.5-18.5V19.9C362.1,11.2,389.1-22.5,389.1-61.5z M305.6-15c-25.7,0-46.5-20.8-46.5-46.5
	S280-108,305.6-108s46.5,20.8,46.5,46.5C352.1-35.9,331.3-15.1,305.6-15z"/>
<line class="st1" x1="162.6" y1="34.6" x2="34" y2="163.2"/>
<line class="st1" x1="162.6" y1="291.8" x2="34" y2="163.2"/>
<line class="st1" x1="162.6" y1="34.6" x2="34" y2="163.2"/>
<line class="st1" x1="325" y1="163.2" x2="34" y2="163.2"/>
</svg>
