<svg id="Calque_1" data-name="Calque 1" xmlns="http://www.w3.org/2000/svg" viewBox="0 0 427 559"><title>filters</title><path d="M216.78,96.86a83.5,83.5,0,1,0-102,81.42V486.86a18.5,18.5,0,0,0,37,0V178.28A83.52,83.52,0,0,0,216.78,96.86Zm-83.5,46.5a46.5,46.5,0,1,1,46.5-46.5A46.55,46.55,0,0,1,133.28,143.36Z" transform="translate(-49.78 -13.36)"/><path d="M281.78,407.44V98.86a18.5,18.5,0,0,0-37,0V407.44a83.5,83.5,0,1,0,37,0Zm-18.5,127.92a46.5,46.5,0,1,1,46.5-46.5A46.55,46.55,0,0,1,263.28,535.36Z" transform="translate(-49.78 -13.36)"/><path d="M476.78,96.86a83.5,83.5,0,1,0-102,81.42V486.86a18.5,18.5,0,0,0,37,0V178.28A83.52,83.52,0,0,0,476.78,96.86Zm-83.5,46.5a46.5,46.5,0,1,1,46.5-46.5A46.55,46.55,0,0,1,393.28,143.36Z" transform="translate(-49.78 -13.36)"/></svg>