<svg xmlns="http://www.w3.org/2000/svg" viewBox="0 0 29.43 23.73"><defs><style>.cls-1{fill:#64b770;}.cls-2{fill:#335c37;}</style></defs><title>LogoFichier 3</title><g id="Calque_2" data-name="Calque 2"><g id="Calque_1-2" data-name="Calque 1"><path class="cls-1" d="M27.31,11.16c-.45,0-.91-.09-1.38-.15a35.67,35.67,0,0,1-4.63,6.32c-2.85,3-5.69,4.58-8.35,4.58a6.8,6.8,0,0,1-3-.7C6,19.3,3.15,15.06,1.87,9A37.07,37.07,0,0,1,1.12.66L0,0A40,40,0,0,0,1,10.64c1.38,5.65,4,9.65,7.87,11.89a8,8,0,0,0,6.4.88C21.18,21.73,25.86,13.85,27.31,11.16Z"/><path class="cls-1" d="M9.13,18.83,11.4,7.26l-7.07,4.5A14.23,14.23,0,0,0,9.13,18.83Z"/><path class="cls-1" d="M24.2,10.72a51.46,51.46,0,0,1-9.39-3L20.28,16A34.28,34.28,0,0,0,24.2,10.72Z"/><path class="cls-2" d="M18.74,23.66a22.74,22.74,0,0,0,9.92-4.95A2.3,2.3,0,0,0,29.42,17a9.17,9.17,0,0,0-.94-4.58C26.8,15.46,23.33,20.89,18.74,23.66Z"/><path class="cls-1" d="M3.84,10.14l6.81-4.33c-3-1.46-5.8-3-7.91-4.19A35,35,0,0,0,3.84,10.14Z"/><path class="cls-1" d="M19.11,17.21,13,7.83,10.62,19.72l0,0C13.63,21.16,16.64,19.53,19.11,17.21Z"/></g></g></svg>