<svg xmlns="http://www.w3.org/2000/svg" viewBox="0 0 48.38 43.93"><defs><style>.cls-1{fill:#64b770;}.cls-2{fill:#335c37;}.cls-3{fill:#263236;}</style></defs><title>LogoFichier 1</title><g id="Calque_2" data-name="Calque 2"><g id="Calque_1-2" data-name="Calque 1"><path class="cls-1" d="M35.28,11.16c-.45,0-.92-.09-1.38-.15a35.36,35.36,0,0,1-4.64,6.32c-2.85,3-5.68,4.58-8.34,4.58a6.77,6.77,0,0,1-3-.7c-4-1.91-6.8-6.15-8.08-12.24A36.68,36.68,0,0,1,9.08.66L8,0A40.35,40.35,0,0,0,9,10.64c1.39,5.65,4,9.65,7.88,11.89a8,8,0,0,0,6.39.88C29.15,21.73,33.83,13.85,35.28,11.16Z"/><path class="cls-1" d="M17.1,18.83,19.37,7.26l-7.07,4.5A14.17,14.17,0,0,0,17.1,18.83Z"/><path class="cls-1" d="M32.17,10.72a51.46,51.46,0,0,1-9.39-3L28.25,16A34.28,34.28,0,0,0,32.17,10.72Z"/><path class="cls-2" d="M26.7,23.66a22.74,22.74,0,0,0,9.92-4.95A2.27,2.27,0,0,0,37.39,17a9.17,9.17,0,0,0-.94-4.58C34.77,15.46,31.29,20.89,26.7,23.66Z"/><path class="cls-1" d="M11.81,10.14l6.81-4.33c-3-1.46-5.8-3-7.91-4.19A35,35,0,0,0,11.81,10.14Z"/><path class="cls-1" d="M27.08,17.21,20.92,7.83,18.59,19.72l0,0C21.59,21.16,24.61,19.53,27.08,17.21Z"/><path class="cls-3" d="M2.15,30.55a.36.36,0,0,1,.34-.3H2.8a.41.41,0,0,1,.32.19l4.41,8.21h0L12,30.44a.41.41,0,0,1,.33-.19h.3a.36.36,0,0,1,.34.3l2.15,12.77a.35.35,0,0,1-.36.42H12.49a.39.39,0,0,1-.36-.31l-.86-5.87h0L8,43.72a.47.47,0,0,1-.32.21H7.38a.43.43,0,0,1-.33-.21L3.84,37.56h0L3,43.43a.38.38,0,0,1-.36.31H.37A.35.35,0,0,1,0,43.32Z"/><path class="cls-3" d="M19.8,30.8a.37.37,0,0,1,.36-.36h2.28a.37.37,0,0,1,.36.36V43.38a.37.37,0,0,1-.36.36H20.16a.37.37,0,0,1-.36-.36Z"/><path class="cls-3" d="M31.16,36.92l-3.83-6a.34.34,0,0,1,.32-.53h2.77a.4.4,0,0,1,.31.17l2.18,3.53h0l2.22-3.53a.37.37,0,0,1,.31-.17h2.77c.32,0,.5.28.32.53l-3.85,6,4,6.28a.34.34,0,0,1-.31.54H35.74a.44.44,0,0,1-.32-.17l-2.49-3.84h0l-2.43,3.84a.44.44,0,0,1-.32.17H27.5a.34.34,0,0,1-.33-.54Z"/><path class="cls-3" d="M42.22,30.42a.52.52,0,0,1,1,0,.52.52,0,0,1-1,0ZM42.38,32h.69v4.93h-.69Z"/><path class="cls-3" d="M46.18,35.34v-2.9h-.75v-.52l.77-.05.09-1.4h.57v1.4h1.37v.57H46.86v2.92c0,.61.18,1,.79,1a1.75,1.75,0,0,0,.59-.14l.14.53a3.07,3.07,0,0,1-.87.18C46.5,36.92,46.18,36.28,46.18,35.34Z"/></g></g></svg>