<svg xmlns="http://www.w3.org/2000/svg" viewBox="0 0 85.55 23.73"><defs><style>.cls-1{fill:#64b770;}.cls-2{fill:#335c37;}.cls-3{fill:#263236;}</style></defs><title>LogoFichier 4</title><g id="Calque_2" data-name="Calque 2"><g id="Calque_1-2" data-name="Calque 1"><path class="cls-1" d="M27.31,11.16c-.45,0-.91-.09-1.38-.15a35.67,35.67,0,0,1-4.63,6.32c-2.85,3-5.69,4.58-8.35,4.58a6.8,6.8,0,0,1-3-.7C6,19.3,3.15,15.06,1.87,9A37.07,37.07,0,0,1,1.12.66L0,0A40,40,0,0,0,1,10.64c1.38,5.65,4,9.65,7.87,11.89a8,8,0,0,0,6.4.88C21.18,21.73,25.86,13.85,27.31,11.16Z"/><path class="cls-1" d="M9.13,18.83,11.4,7.26l-7.07,4.5A14.23,14.23,0,0,0,9.13,18.83Z"/><path class="cls-1" d="M24.2,10.72a51.46,51.46,0,0,1-9.39-3L20.28,16A34.28,34.28,0,0,0,24.2,10.72Z"/><path class="cls-2" d="M18.74,23.66a22.74,22.74,0,0,0,9.92-4.95A2.3,2.3,0,0,0,29.42,17a9.17,9.17,0,0,0-.94-4.58C26.8,15.46,23.33,20.89,18.74,23.66Z"/><path class="cls-1" d="M3.84,10.14l6.81-4.33c-3-1.46-5.8-3-7.91-4.19A35,35,0,0,0,3.84,10.14Z"/><path class="cls-1" d="M19.11,17.21,13,7.83,10.62,19.72l0,0C13.63,21.16,16.64,19.53,19.11,17.21Z"/><path class="cls-3" d="M39.32,6a.36.36,0,0,1,.34-.3H40a.41.41,0,0,1,.32.19l4.41,8.2h0l4.4-8.2a.41.41,0,0,1,.33-.19h.3a.36.36,0,0,1,.34.3l2.15,12.77a.34.34,0,0,1-.36.41H49.66a.39.39,0,0,1-.37-.3l-.85-5.87h0l-3.19,6.16a.45.45,0,0,1-.32.2h-.34a.42.42,0,0,1-.33-.2L41,13.05h0l-.83,5.87a.37.37,0,0,1-.36.3H37.54a.35.35,0,0,1-.37-.41Z"/><path class="cls-3" d="M57,6.29a.37.37,0,0,1,.36-.36h2.28a.37.37,0,0,1,.36.36V18.86a.37.37,0,0,1-.36.36H57.33a.37.37,0,0,1-.36-.36Z"/><path class="cls-3" d="M68.33,12.4,64.5,6.46a.34.34,0,0,1,.32-.53h2.77a.4.4,0,0,1,.31.17l2.18,3.53h0L72.32,6.1a.37.37,0,0,1,.31-.17H75.4a.34.34,0,0,1,.32.53L71.87,12.4l4,6.29a.33.33,0,0,1-.31.53H72.91a.41.41,0,0,1-.32-.17L70.1,15.22h0l-2.43,3.83a.41.41,0,0,1-.32.17H64.67c-.33,0-.5-.28-.33-.53Z"/><path class="cls-3" d="M79.39,5.91a.48.48,0,0,1,.51-.48.47.47,0,0,1,.51.48.48.48,0,0,1-.51.49A.49.49,0,0,1,79.39,5.91Zm.16,1.57h.69v4.93h-.69Z"/><path class="cls-3" d="M83.34,10.82V7.93H82.6V7.4l.77,0L83.46,6H84v1.4H85.4v.57H84v2.92c0,.61.18,1,.79,1a1.75,1.75,0,0,0,.59-.14l.14.52a2.78,2.78,0,0,1-.87.19C83.67,12.41,83.34,11.77,83.34,10.82Z"/></g></g></svg>