<svg xmlns="http://www.w3.org/2000/svg" viewBox="0 0 48.38 13.99"><defs><style>.cls-1{fill:#263236;}</style></defs><title>LogoFichier 2</title><g id="Calque_2" data-name="Calque 2"><g id="Calque_1-2" data-name="Calque 1"><path class="cls-1" d="M2.15.61a.36.36,0,0,1,.34-.3H2.8A.44.44,0,0,1,3.12.5L7.53,8.71h0L12,.5A.44.44,0,0,1,12.3.31h.3a.36.36,0,0,1,.34.3l2.15,12.77a.35.35,0,0,1-.36.42H12.49a.38.38,0,0,1-.36-.31l-.86-5.87h0L8,13.78a.47.47,0,0,1-.32.21H7.38a.43.43,0,0,1-.33-.21L3.84,7.62h0L3,13.49a.37.37,0,0,1-.36.31H.37A.35.35,0,0,1,0,13.38Z"/><path class="cls-1" d="M19.8.86A.37.37,0,0,1,20.16.5h2.28a.37.37,0,0,1,.36.36V13.44a.37.37,0,0,1-.36.36H20.16a.37.37,0,0,1-.36-.36Z"/><path class="cls-1" d="M31.16,7,27.33,1A.34.34,0,0,1,27.65.5h2.77a.4.4,0,0,1,.31.17L32.91,4.2h0L35.15.67A.37.37,0,0,1,35.46.5h2.77c.32,0,.5.29.32.53L34.7,7l4,6.29a.33.33,0,0,1-.31.53H35.74a.44.44,0,0,1-.32-.17L32.93,9.79h0l-2.43,3.84a.44.44,0,0,1-.32.17H27.5c-.33,0-.5-.29-.33-.53Z"/><path class="cls-1" d="M42.22.49a.52.52,0,0,1,1,0,.52.52,0,0,1-1,0Zm.16,1.56h.69V7h-.69Z"/><path class="cls-1" d="M46.18,5.4V2.5h-.75V2l.77-.05.09-1.4h.57v1.4h1.37V2.5H46.86V5.42c0,.61.18,1,.79,1a1.75,1.75,0,0,0,.59-.14l.14.53a3.07,3.07,0,0,1-.87.18C46.5,7,46.18,6.34,46.18,5.4Z"/></g></g></svg>