<?xml version="1.0" encoding="utf-8"?>
<!-- Generator: Adobe Illustrator 23.0.3, SVG Export Plug-In . SVG Version: 6.00 Build 0)  -->
<svg version="1.1" id="Calque_1" xmlns="http://www.w3.org/2000/svg" xmlns:xlink="http://www.w3.org/1999/xlink" x="0px" y="0px"
	 viewBox="0 0 31.9 25.7" style="enable-background:new 0 0 31.9 25.7;" xml:space="preserve">
<style type="text/css">
	.st0{fill:#64B770;}
	.st1{fill:#335C37;}
</style>
<g>
	<path class="st0" d="M10.4,19.8l2.3-11.6l-7.1,4.5C6.4,15.5,8.1,18,10.4,19.8z"/>
	<path class="st0" d="M28.5,12.1c-0.5,0-0.9-0.1-1.4-0.1c-1.3,2.3-2.9,4.4-4.6,6.3c-2.9,3-5.7,4.6-8.4,4.6c-1,0-2.1-0.2-3-0.7
		C7.2,20.3,4.4,16,3.1,10C2.5,7.2,2.3,4.4,2.3,1.6L1.2,1c-0.1,3.6,0.2,7.2,1,10.6c1.4,5.7,4,9.7,7.9,11.9c1.9,1.2,4.2,1.5,6.4,0.9
		C22.4,22.7,27.1,14.8,28.5,12.1z"/>
	<path class="st0" d="M25.4,11.7c-3.2-0.7-6.4-1.7-9.4-3l5.5,8.3C23,15.4,24.3,13.6,25.4,11.7z"/>
	<path class="st1" d="M20,24.6c3.7-0.8,7.1-2.5,9.9-5c0.5-0.4,0.8-1.1,0.8-1.7c0.1-1.6-0.2-3.2-0.9-4.6C28,16.4,24.6,21.9,20,24.6z"
		/>
	<path class="st0" d="M5.1,11.1l6.8-4.3c-3-1.5-5.8-3-7.9-4.2C4,5.5,4.4,8.3,5.1,11.1z"/>
	<path class="st0" d="M20.3,18.2l-6.1-9.4l-2.4,11.9l0,0C14.9,22.1,17.9,20.5,20.3,18.2z"/>
</g>
</svg>
