<?xml version="1.0" encoding="utf-8"?>
<!-- Generator: Adobe Illustrator 23.0.3, SVG Export Plug-In . SVG Version: 6.00 Build 0)  -->
<svg version="1.1" id="Calque_1" xmlns="http://www.w3.org/2000/svg" xmlns:xlink="http://www.w3.org/1999/xlink" x="0px" y="0px"
	 viewBox="0 0 469.6 430" style="enable-background:new 0 0 469.6 430;" xml:space="preserve">
<style type="text/css">
	.st0{display:none;}
	.st1{fill:none;stroke:#000000;stroke-width:37;stroke-miterlimit:10;}
	.st2{fill:none;stroke:#000000;stroke-width:37;stroke-linecap:round;stroke-miterlimit:10;}
</style>
<title>filters</title>
<path class="st0" d="M185.7-9.7c0-46.1-37.4-83.5-83.5-83.5c-46.1,0-83.5,37.4-83.5,83.5c0,39,27,72.8,65,81.4v308.6
	c0,10.2,8.3,18.5,18.5,18.5s18.5-8.3,18.5-18.5V71.7C158.7,63.1,185.7,29.3,185.7-9.7z M102.2,36.8C76.5,36.8,55.7,16,55.7-9.7
	s20.8-46.5,46.5-46.5s46.5,20.8,46.5,46.5C148.7,16,127.9,36.8,102.2,36.8z"/>
<path class="st0" d="M250.7,300.9V-7.7c0-10.2-8.3-18.5-18.5-18.5c-10.2,0-18.5,8.3-18.5,18.5v308.6c-45,10.2-73.1,55-62.9,99.9
	c10.2,45,55,73.1,99.9,62.9c45-10.2,73.1-55,62.9-99.9C306.5,332.5,282.1,308,250.7,300.9z M232.2,428.8
	c-25.7,0-46.5-20.8-46.5-46.5c0-25.7,20.8-46.5,46.5-46.5s46.5,20.8,46.5,46.5C278.7,408,257.9,428.8,232.2,428.8z"/>
<path class="st0" d="M445.7-9.7c0-46.1-37.4-83.5-83.5-83.5c-46.1,0-83.5,37.4-83.5,83.5c0,39,27,72.8,65,81.4v308.6
	c0,10.2,8.3,18.5,18.5,18.5s18.5-8.3,18.5-18.5V71.7C418.7,63.1,445.7,29.3,445.7-9.7z M362.2,36.8c-25.7,0-46.5-20.8-46.5-46.5
	s20.8-46.5,46.5-46.5s46.5,20.8,46.5,46.5C408.7,16,387.9,36.8,362.2,36.8z"/>
<circle class="st1" cx="177.3" cy="156.9" r="120.2"/>
<line class="st2" x1="409.6" y1="393.3" x2="260.2" y2="243.9"/>
</svg>
