<?xml version="1.0" standalone="no"?>
<!DOCTYPE svg PUBLIC "-//W3C//DTD SVG 20010904//EN"
 "http://www.w3.org/TR/2001/REC-SVG-20010904/DTD/svg10.dtd">
<svg version="1.0" xmlns="http://www.w3.org/2000/svg"
 width="1024.000000pt" height="1024.000000pt" viewBox="0 0 1024.000000 1024.000000"
 preserveAspectRatio="xMidYMid meet">
<metadata>
Created by potrace 1.11, written by Peter Selinger 2001-2013
</metadata>
<g transform="translate(0.000000,1024.000000) scale(0.100000,-0.100000)"
fill="#000000" stroke="none">
<path d="M385 8773 c0 -76 -3 -145 -7 -154 -4 -9 -5 -19 -2 -22 5 -5 8 -194 3
-214 -1 -5 0 -12 1 -18 1 -5 4 -102 6 -215 2 -113 6 -252 9 -310 3 -58 7 -152
10 -210 2 -58 7 -120 9 -138 5 -39 19 -242 20 -289 0 -18 3 -33 7 -33 3 0 5
-12 4 -27 0 -15 2 -52 6 -83 5 -30 11 -84 14 -120 3 -36 8 -83 11 -105 3 -22
7 -53 8 -70 4 -30 23 -164 32 -220 2 -16 6 -46 9 -65 7 -57 20 -143 30 -200
12 -72 17 -97 31 -175 8 -44 17 -95 20 -112 7 -50 31 -150 39 -164 5 -8 4 -10
-4 -5 -8 5 -9 1 -2 -16 9 -21 32 -120 45 -193 7 -34 11 -54 26 -110 6 -22 13
-49 15 -60 3 -18 51 -194 89 -333 8 -28 17 -56 20 -60 3 -5 8 -24 11 -43 3
-18 9 -36 13 -39 4 -3 9 -14 10 -25 2 -11 15 -56 30 -100 14 -44 27 -82 27
-85 1 -3 4 -12 7 -20 26 -70 42 -116 43 -120 2 -13 17 -57 25 -75 5 -11 23
-58 40 -105 17 -46 36 -90 42 -97 6 -7 8 -13 5 -13 -6 0 26 -79 75 -190 11
-25 31 -70 45 -100 46 -105 197 -405 240 -478 24 -40 43 -75 43 -77 0 -3 43
-74 95 -158 53 -83 101 -161 108 -172 7 -11 14 -22 17 -25 3 -3 32 -43 65 -90
65 -94 194 -261 210 -272 5 -4 7 -8 3 -8 -4 0 5 -13 20 -28 15 -16 47 -52 72
-81 119 -140 281 -304 423 -428 29 -25 66 -57 82 -72 17 -14 50 -42 75 -61 25
-19 50 -39 56 -45 38 -34 296 -213 327 -227 15 -7 27 -16 27 -20 0 -5 7 -8 15
-8 8 0 15 -4 15 -10 0 -5 4 -10 9 -10 6 0 65 -33 133 -74 118 -70 241 -136
321 -170 20 -9 52 -22 70 -30 49 -21 205 -75 251 -87 139 -35 204 -50 229 -54
15 -3 42 -8 60 -11 17 -3 50 -7 72 -9 22 -2 69 -8 105 -12 121 -14 497 -6 593
13 12 2 40 6 62 9 43 6 73 11 120 21 17 4 39 8 50 10 11 1 20 3 20 4 0 1 7 3
15 5 13 3 100 28 135 38 203 62 473 179 685 299 53 30 315 194 335 210 6 5 68
51 139 104 72 52 153 114 180 137 28 23 59 49 69 57 11 8 24 20 31 25 6 6 31
27 56 49 209 180 554 524 706 702 23 27 54 63 69 79 14 17 65 77 113 135 48
58 89 107 92 110 3 3 28 34 55 70 28 36 53 67 56 70 3 3 31 39 62 80 31 41 64
82 72 91 8 9 15 21 15 27 0 5 3 12 8 14 7 3 146 186 167 219 13 20 36 54 103
149 29 41 57 82 62 90 97 146 140 213 140 220 0 4 4 10 9 12 5 2 46 64 92 138
45 74 85 137 89 140 3 3 11 16 18 30 6 14 18 34 24 44 36 56 78 126 78 130 0
3 15 29 33 58 18 29 39 67 47 83 8 17 17 32 21 35 5 5 31 51 127 230 19 36 39
71 45 78 11 15 13 14 -43 17 -25 2 -45 4 -45 5 0 1 -20 3 -45 5 -25 2 -74 6
-110 10 -36 3 -95 8 -132 10 l-68 4 -27 -47 c-16 -26 -32 -54 -38 -64 -47 -82
-121 -205 -127 -213 -16 -20 -78 -117 -78 -122 0 -5 -131 -204 -140 -213 -3
-3 -24 -34 -47 -70 -24 -36 -46 -70 -51 -75 -5 -6 -17 -24 -28 -40 -10 -17
-21 -32 -24 -35 -3 -3 -34 -45 -70 -95 -66 -93 -279 -376 -289 -385 -4 -3 -19
-23 -36 -45 -16 -21 -36 -47 -45 -56 -8 -9 -26 -31 -40 -49 -14 -19 -30 -38
-35 -44 -6 -6 -28 -33 -50 -61 -22 -27 -52 -63 -67 -80 -14 -16 -55 -64 -90
-105 -34 -41 -69 -82 -78 -90 -8 -8 -43 -47 -76 -85 -108 -124 -403 -408 -565
-545 -9 -8 -28 -24 -41 -35 -12 -11 -72 -59 -133 -107 -60 -49 -115 -92 -121
-97 -7 -6 -52 -38 -100 -73 -49 -34 -90 -66 -92 -70 -2 -5 -10 -8 -18 -8 -8 0
-14 -3 -14 -8 0 -4 -20 -18 -45 -32 -25 -14 -45 -28 -45 -32 0 -5 -5 -8 -11
-8 -6 0 -30 -13 -54 -30 -24 -16 -48 -30 -54 -30 -6 0 -11 -4 -11 -10 0 -5 -6
-10 -13 -10 -7 0 -28 -11 -47 -24 -38 -25 -262 -139 -345 -175 -27 -12 -59
-26 -70 -31 -191 -83 -460 -154 -710 -187 -124 -16 -492 -8 -598 13 -12 2 -35
6 -52 9 -60 9 -107 18 -150 31 -5 2 -22 5 -37 9 -45 9 -199 65 -268 98 -36 16
-67 31 -70 31 -3 1 -16 8 -29 15 -13 7 -66 35 -117 61 -51 27 -118 65 -149 84
-30 20 -57 36 -60 36 -13 0 -281 190 -320 227 -8 7 -16 13 -19 13 -4 0 -19 11
-34 24 -15 14 -38 34 -52 46 -210 181 -386 361 -546 559 -10 13 -24 28 -29 35
-45 49 -254 342 -322 452 -50 80 -126 209 -153 259 -18 33 -46 85 -62 115 -50
90 -55 100 -121 240 -95 201 -117 248 -117 256 0 4 -18 50 -41 103 -22 53 -45
105 -49 116 -52 124 -172 483 -226 675 -67 238 -75 265 -80 290 -3 14 -16 68
-29 121 -13 53 -26 107 -29 120 -40 188 -57 270 -62 299 -3 19 -7 43 -10 52
-3 10 -7 28 -9 40 -2 13 -13 77 -24 143 -11 66 -22 136 -25 155 -3 19 -7 44
-10 55 -2 11 -7 47 -11 80 -4 32 -9 68 -11 80 -2 11 -6 43 -9 71 -2 28 -6 64
-9 80 -6 39 -14 106 -21 184 -3 36 -8 83 -10 105 -7 61 -13 132 -20 215 -3 41
-8 107 -11 145 -4 39 -7 97 -8 130 -1 33 -5 66 -10 73 -4 7 -2 12 4 12 6 0 9
4 6 8 -10 16 -23 377 -27 735 l-1 128 -32 14 c-17 8 -60 30 -96 50 -137 77
-209 115 -217 115 -5 0 -9 -62 -8 -137z"/>
<path d="M1286 8273 c7 -316 22 -621 39 -768 3 -22 7 -71 10 -110 2 -38 6 -83
9 -100 6 -34 17 -125 21 -170 6 -61 16 -141 21 -156 2 -9 6 -38 9 -63 2 -26 6
-59 9 -74 3 -15 8 -47 12 -72 7 -46 11 -73 18 -112 2 -13 7 -41 11 -63 3 -22
10 -56 15 -75 4 -19 8 -42 8 -50 0 -8 3 -28 7 -45 11 -51 34 -169 39 -195 2
-14 9 -45 15 -70 5 -25 12 -56 14 -70 3 -14 14 -65 26 -115 12 -49 31 -130 43
-180 11 -49 23 -93 27 -97 5 -6 424 251 458 281 7 6 15 11 18 11 3 0 45 25 93
56 299 193 333 214 337 214 3 0 27 16 54 35 26 19 51 35 55 35 3 0 28 15 54
33 26 18 119 77 207 132 88 55 162 103 163 107 2 5 9 8 16 8 7 0 26 11 42 25
16 14 32 25 35 25 6 0 264 161 284 177 6 5 44 28 85 53 41 24 77 47 80 51 3 3
15 11 28 18 12 6 56 33 97 60 l75 48 -118 59 c-64 32 -118 62 -120 67 -2 4
-11 7 -21 7 -9 0 -21 4 -27 9 -5 4 -124 67 -264 138 -140 72 -300 154 -355
183 -55 29 -147 77 -205 107 -193 102 -303 160 -509 272 -52 28 -97 51 -102
51 -4 0 -9 3 -11 8 -1 4 -28 19 -58 35 -70 34 -124 65 -451 247 -146 82 -272
152 -280 155 -13 5 -15 -12 -13 -122z"/>
<path d="M4000 6559 c-41 -27 -83 -52 -92 -55 -10 -4 -18 -10 -18 -14 0 -4
-13 -13 -30 -20 -16 -7 -30 -16 -30 -20 0 -4 -8 -10 -17 -13 -23 -7 -72 -37
-97 -59 -11 -10 -24 -18 -28 -18 -5 0 -14 -5 -21 -10 -17 -15 -77 -53 -109
-69 -16 -8 -28 -18 -28 -23 0 -4 -5 -8 -10 -8 -6 0 -49 -25 -95 -55 -47 -30
-90 -55 -95 -55 -4 0 -10 -4 -12 -8 -1 -4 -46 -34 -98 -67 -123 -77 -162 -102
-177 -115 -7 -5 -15 -10 -18 -10 -4 0 -26 -13 -50 -30 -24 -16 -48 -30 -53
-30 -6 0 -12 -4 -14 -8 -1 -4 -148 -100 -326 -212 -178 -113 -353 -224 -390
-248 -37 -23 -74 -45 -82 -49 -8 -4 -20 -12 -27 -17 -6 -6 -72 -49 -147 -96
-75 -47 -136 -89 -136 -93 0 -30 133 -398 201 -557 35 -81 189 -383 204 -400
8 -8 14 -19 15 -25 3 -18 184 -303 222 -350 5 -5 38 -50 74 -100 63 -85 166
-212 244 -300 69 -78 306 -312 375 -370 39 -33 72 -63 75 -66 3 -3 31 -27 64
-53 56 -46 68 -49 72 -23 1 7 5 32 9 57 4 24 8 47 10 50 2 3 6 25 10 50 4 25
8 47 10 50 2 3 6 22 9 42 3 21 10 58 16 83 6 25 13 62 16 83 3 20 9 51 14 67
5 17 11 46 14 65 6 40 11 68 31 165 8 39 17 81 19 95 3 14 5 25 6 25 2 0 7 26
14 72 3 21 19 103 35 183 17 80 32 159 35 175 3 17 8 41 11 55 7 29 23 114 30
150 3 14 7 36 10 50 3 14 10 48 15 75 6 28 12 59 14 70 5 25 73 371 81 408 3
15 7 39 10 55 3 15 8 38 11 52 3 14 8 36 10 50 2 14 7 36 10 50 3 14 8 36 10
50 2 14 9 45 14 70 5 25 12 60 15 78 3 18 12 64 20 102 8 38 17 83 20 100 3
17 12 63 21 103 9 39 18 86 20 102 3 31 11 70 14 70 1 0 3 9 4 20 3 21 12 73
22 115 3 14 7 36 10 50 2 14 7 39 11 55 10 44 10 45 22 110 6 33 13 69 15 80
2 11 16 81 31 155 14 74 28 141 30 148 6 15 12 19 -75 -39z"/>
<path d="M5156 6413 c10 -15 21 -30 24 -33 6 -6 63 -91 70 -105 3 -5 56 -86
118 -179 61 -92 112 -172 112 -176 0 -5 3 -10 8 -12 11 -5 342 -506 342 -518
0 -5 5 -10 10 -10 6 0 14 -8 18 -17 10 -25 105 -167 115 -171 4 -2 7 -8 7 -12
0 -5 29 -52 65 -105 36 -52 65 -98 65 -101 0 -3 9 -14 20 -26 11 -12 20 -28
20 -35 0 -7 4 -13 9 -13 5 0 13 -9 16 -20 3 -11 12 -26 18 -33 22 -23 57 -76
57 -85 0 -5 7 -15 15 -22 8 -7 29 -35 46 -64 16 -28 44 -69 60 -91 16 -22 33
-47 37 -55 10 -21 165 -254 173 -260 3 -3 8 -10 10 -16 9 -22 304 -464 311
-464 4 0 22 17 40 37 18 20 46 51 62 67 15 17 47 53 70 80 22 27 48 56 57 65
15 16 118 137 132 156 4 5 19 24 33 40 14 17 39 49 56 73 17 23 35 42 39 42 4
0 10 8 13 18 3 9 16 28 28 42 13 14 51 63 85 110 34 47 66 90 70 95 5 6 19 26
33 45 13 19 27 37 30 40 6 6 59 82 117 170 23 36 46 70 51 75 22 27 102 157
102 165 0 6 3 10 8 10 4 0 18 20 32 45 14 25 28 45 32 45 5 0 8 5 8 10 0 10
13 33 77 136 37 58 74 126 71 129 -2 2 -16 6 -33 9 -16 3 -88 19 -160 36 -71
17 -139 32 -150 35 -11 2 -20 4 -20 5 0 1 -10 3 -23 6 -13 2 -58 13 -100 25
-42 11 -86 22 -97 24 -11 2 -35 8 -52 13 -18 6 -33 9 -33 6 0 -3 -8 0 -18 5
-11 6 -30 12 -43 15 -35 7 -165 41 -234 62 -33 10 -64 19 -70 20 -5 2 -35 10
-65 19 -30 9 -64 18 -74 20 -11 3 -47 13 -80 24 -34 11 -108 34 -166 51 -98
30 -356 114 -390 127 -8 3 -21 7 -27 9 -11 2 -68 22 -123 42 -8 3 -17 6 -20 7
-3 1 -13 5 -22 8 -10 4 -26 10 -35 14 -10 3 -20 7 -23 8 -24 6 -59 18 -75 25
-11 5 -60 23 -110 40 -49 18 -103 38 -120 45 -38 16 -98 39 -105 41 -3 0 -14
4 -25 9 -11 4 -76 30 -145 58 -69 27 -145 59 -170 69 -24 11 -49 21 -55 23 -5
1 -30 11 -55 22 -25 11 -56 23 -68 27 l-24 8 18 -29z"/>
<path d="M4546 6363 c-4 -26 -9 -55 -11 -63 -2 -8 -5 -27 -8 -42 -5 -27 -37
-183 -42 -203 -1 -5 -5 -28 -10 -50 -4 -22 -10 -49 -12 -60 -2 -11 -6 -29 -8
-40 -2 -11 -6 -31 -9 -45 -9 -40 -15 -72 -21 -110 -3 -19 -8 -43 -11 -52 -3
-9 -7 -27 -9 -40 -3 -13 -9 -45 -15 -73 -5 -27 -12 -61 -14 -75 -3 -14 -5 -25
-6 -25 -1 0 -3 -11 -5 -25 -2 -14 -6 -36 -9 -50 -9 -40 -16 -73 -21 -100 -3
-14 -7 -36 -10 -50 -6 -26 -12 -57 -20 -100 -3 -14 -7 -36 -10 -50 -3 -14 -8
-37 -10 -52 -2 -15 -8 -44 -14 -65 -5 -21 -12 -55 -15 -75 -3 -21 -11 -59 -17
-85 -14 -62 -16 -73 -23 -114 -3 -19 -8 -43 -10 -54 -6 -31 -37 -182 -41 -202
-2 -10 -4 -20 -5 -23 -1 -3 -3 -9 -4 -15 -8 -49 -20 -107 -41 -205 -9 -41 -18
-91 -21 -110 -3 -19 -8 -44 -11 -55 -3 -11 -7 -29 -9 -40 -3 -19 -90 -446
-100 -490 -2 -11 -6 -33 -8 -50 -3 -16 -11 -59 -20 -95 -8 -36 -17 -83 -21
-106 -3 -22 -10 -55 -15 -72 -5 -18 -7 -32 -5 -32 3 0 0 -11 -5 -26 -6 -14
-12 -42 -15 -62 -2 -20 -7 -48 -11 -62 -3 -14 -7 -34 -9 -45 -2 -11 -8 -40
-13 -65 -30 -141 -63 -313 -60 -315 7 -6 88 -39 167 -67 97 -33 260 -73 341
-83 30 -3 68 -9 85 -11 46 -8 262 -7 335 0 74 8 221 31 228 36 3 3 9 5 62 15
55 11 41 7 130 35 332 102 689 301 1030 573 41 33 80 65 85 71 6 6 31 28 57
49 26 20 60 50 75 65 16 15 51 48 79 73 l51 47 -34 48 c-18 27 -33 54 -33 61
0 6 -4 13 -8 15 -11 4 -72 94 -72 106 0 5 -9 17 -20 27 -11 10 -20 22 -20 27
0 4 -16 30 -35 57 -19 26 -35 51 -35 55 0 4 -5 12 -11 19 -5 7 -52 77 -104
157 -51 80 -98 150 -104 157 -6 7 -11 15 -11 18 0 3 -27 46 -60 95 -33 49 -60
94 -60 100 0 5 -4 10 -8 10 -5 0 -19 19 -32 43 -13 23 -28 47 -32 52 -16 20
-199 300 -205 315 -4 8 -9 17 -13 20 -3 3 -17 23 -30 45 -13 22 -28 45 -32 50
-9 11 -297 454 -313 482 -6 10 -37 59 -69 108 -33 50 -87 133 -121 185 -34 52
-93 142 -131 200 -38 58 -75 117 -83 133 -7 15 -17 27 -22 27 -5 0 -9 4 -9 9
0 5 -22 42 -48 83 -27 40 -75 115 -108 166 -32 51 -68 104 -80 118 l-21 26 -7
-49z"/>
<path d="M9548 4938 c-9 -13 -15 -27 -16 -32 0 -5 -4 -12 -9 -15 -5 -3 -31
-44 -58 -91 -27 -47 -53 -86 -57 -88 -4 -2 -8 -8 -8 -14 0 -10 -160 -279 -212
-355 -15 -23 -28 -46 -28 -51 0 -6 -3 -12 -8 -14 -4 -1 -23 -28 -42 -58 -18
-30 -74 -115 -122 -187 -48 -73 -88 -137 -88 -143 0 -5 -4 -10 -10 -10 -5 0
-10 -6 -10 -14 0 -8 -4 -16 -8 -18 -4 -1 -37 -46 -72 -98 -36 -52 -68 -96 -72
-98 -5 -2 -8 -8 -8 -13 0 -6 -4 -15 -10 -22 -28 -34 -61 -79 -105 -142 -27
-38 -51 -72 -54 -75 -3 -3 -17 -21 -31 -40 -13 -19 -28 -39 -32 -45 -5 -5 -29
-38 -56 -71 -135 -176 -168 -218 -177 -228 -5 -6 -48 -58 -95 -116 -46 -58
-89 -109 -95 -115 -6 -5 -40 -44 -76 -85 -75 -88 -59 -70 -184 -205 -98 -106
-352 -361 -417 -419 -18 -16 -55 -50 -83 -75 -44 -41 -150 -133 -226 -196 -13
-11 -42 -34 -64 -50 -21 -17 -46 -36 -55 -44 -60 -53 -416 -298 -487 -335 -18
-9 -33 -19 -33 -21 0 -5 52 2 82 11 9 3 25 7 35 9 10 2 54 13 98 25 44 11 91
23 105 26 14 2 39 9 56 15 17 5 40 11 50 14 10 2 64 18 119 35 55 17 107 33
115 35 33 8 408 143 425 153 5 4 16 7 23 8 8 2 28 9 45 17 18 8 68 30 112 47
44 18 84 37 89 41 6 5 18 9 28 9 10 0 18 5 18 10 0 6 7 10 16 10 15 0 394 186
464 228 19 11 55 31 80 43 25 13 47 25 50 28 3 3 21 15 40 25 60 33 315 193
410 259 94 63 381 275 390 286 3 4 25 22 50 41 78 61 264 221 306 265 106 110
172 241 202 406 10 50 7 510 -2 594 -9 75 -13 107 -19 140 -3 17 -9 50 -12 75
-4 25 -9 52 -11 60 -2 8 -12 51 -22 95 -10 44 -27 107 -37 140 -10 33 -18 64
-17 68 1 4 -3 17 -8 28 -6 11 -26 61 -44 112 -19 50 -48 122 -65 159 -17 36
-31 71 -31 77 0 18 -17 12 -32 -11z"/>
</g>
</svg>
