<svg xmlns="http://www.w3.org/2000/svg" viewBox="0 0 532.11 501.81"><title>sucreFichier 17</title><g id="Calque_2" data-name="Calque 2"><g id="Calque_2-2" data-name="Calque 2"><g id="sucres"><path d="M266.36,251.22,164.38,308,95.45,269.51a9,9,0,1,0-8.78,15.71l68.71,38.41v39a9,9,0,1,0,18,0V323.64L275.12,267a9,9,0,0,0-8.76-15.73Z"/><path d="M33,270.85V263.3a6.32,6.32,0,0,0-12.63,0v7.55c0,3.3,2.91,6.47,6.32,6.31A6.42,6.42,0,0,0,33,270.85Z"/><path d="M36,285a6.42,6.42,0,0,0-6.31,6.31v5.77c0,3.3,2.9,6.47,6.31,6.31a6.42,6.42,0,0,0,6.31-6.31v-5.77C42.32,288,39.42,284.81,36,285Z"/><path d="M52,272.09a6.42,6.42,0,0,0-6.31,6.31v7.11a6.31,6.31,0,0,0,12.62,0V278.4A6.38,6.38,0,0,0,52,272.09Z"/><path d="M270.94,342.94a6.42,6.42,0,0,0-6.31,6.31v4c0,3.3,2.9,6.47,6.31,6.31a6.42,6.42,0,0,0,6.32-6.31v-4A6.39,6.39,0,0,0,270.94,342.94Z"/><path d="M238.23,320.55a6.41,6.41,0,0,0-4.47,1.85,6.6,6.6,0,0,0-1.85,4.47v2.29a6.56,6.56,0,0,0,1.85,4.47,6.34,6.34,0,0,0,8.93,0,6.6,6.6,0,0,0,1.85-4.47v-2.29a6.56,6.56,0,0,0-1.85-4.47A6.44,6.44,0,0,0,238.23,320.55Z"/><path d="M235.36,382a6.41,6.41,0,0,0-4.47,1.85,6.58,6.58,0,0,0-1.85,4.46v2.3a6.51,6.51,0,0,0,1.85,4.46,6.31,6.31,0,0,0,8.93,0,6.56,6.56,0,0,0,1.85-4.46v-2.3a6.55,6.55,0,0,0-1.85-4.46A6.44,6.44,0,0,0,235.36,382Z"/><path d="M469.07,118.15,367.1,175l-68.94-38.54a9,9,0,0,0-8.78,15.71l68.71,38.42v39a9,9,0,1,0,18,0v-39l101.74-56.7a9,9,0,0,0-8.76-15.72Z"/><path d="M347.47,294.68a6.42,6.42,0,0,0-6.31,6.31v7.11a6.31,6.31,0,1,0,12.62,0V301A6.38,6.38,0,0,0,347.47,294.68Z"/><path d="M428.11,187.26a6.43,6.43,0,0,0-6.31,6.32v4a6.31,6.31,0,1,0,12.62,0v-4A6.38,6.38,0,0,0,428.11,187.26Z"/><path d="M404,224.76a6.35,6.35,0,0,0-4.46,1.85,6.51,6.51,0,0,0-1.85,4.46v2.3a6.47,6.47,0,0,0,1.85,4.46,6.3,6.3,0,0,0,8.92,0,6.51,6.51,0,0,0,1.85-4.46v-2.3a6.47,6.47,0,0,0-1.85-4.46A6.38,6.38,0,0,0,404,224.76Z"/><path d="M400,204.2v-2.3a6.47,6.47,0,0,0-1.85-4.46,6.3,6.3,0,0,0-8.92,0,6.51,6.51,0,0,0-1.85,4.46v2.3a6.32,6.32,0,0,0,6.31,6.31,6.36,6.36,0,0,0,4.46-1.85A6.51,6.51,0,0,0,400,204.2Z"/><path d="M531.86,96.5a9,9,0,0,0-4.61-7.84L370.7,1.14a9,9,0,0,0-8.77,0L205.13,88.51a9,9,0,0,0-4.62,7.86v56l-30.32-16.95a9,9,0,0,0-8.77,0L4.62,222.83A9,9,0,0,0,0,230.69V405.44a9,9,0,0,0,4.62,7.86l156.8,87.37a9,9,0,0,0,8.76,0L327,413.3a9,9,0,0,0,4.62-7.88l-.08-56,30.41,16.95a9,9,0,0,0,4.38,1.13,9.07,9.07,0,0,0,4.38-1.13L527.5,279a9,9,0,0,0,4.61-7.87ZM173.16,478.41v-80a9,9,0,0,0-18,0v78.13L18,400.15V236l147.79-82.36,147.56,82.5.24,164ZM375.88,342.86V265.37a9,9,0,0,0-18,0v78.12l-26.39-14.7-.08-55.1a6.26,6.26,0,0,0,4.3-5.91v-7.55a6.56,6.56,0,0,0-4.33-6l0-23.39a9,9,0,0,0-4.6-7.84L218.51,162.47V101.66l147.8-82.35L513.86,101.8l.25,164Z"/></g></g></g></svg>