<svg xmlns="http://www.w3.org/2000/svg" viewBox="0 0 407.63 342.09"><title>trancheFichier 15</title><g id="Calque_2" data-name="Calque 2"><g id="Calque_2-2" data-name="Calque 2"><g id="tranches"><path d="M374.38,144.61c-.09-.06-.19-.09-.28-.15-.42-.27-.88-.45-1.32-.69l-.3-.14a17.09,17.09,0,0,0-6.87-2C245.1,134.3,62.57,24.54,27.2,2.61a17,17,0,0,0-17-.63A18.16,18.16,0,0,0,.61,17.19C-2.06,70.44-1.24,249.72,121.12,321A129.93,129.93,0,0,0,162,336.65l.33.11a231.53,231.53,0,0,0,49.31,5.33c85.53,0,151.9-47.5,179.27-70.78a48.63,48.63,0,0,0,16.74-36.45C408.62,168.09,375.77,145.54,374.38,144.61Zm-52.21,11.54c-8.52,14.13-26.1,41.33-48.91,66.2l-68.21-104C244.05,134.68,284.46,148.56,322.17,156.15Zm-63.53,81c-30.78,28.87-68.38,49.24-105.42,31.49-.15-.07-.29-.16-.43-.23l29.13-148.24ZM134.21,257.35c-29.42-21.26-48-54-59.78-88.19l88.12-56ZM153.16,95l-84.9,54C56.7,105.9,54.72,63.86,54.57,42.7,80.91,57.93,115.28,76.77,153.16,95Zm57.93,219.49c-27.05,7.72-53.87,4-79.72-11.06C83.48,275.5,50.45,225.62,33.2,155.15,19.75,100.22,19.79,46.81,20.74,22.55c4,2.43,8.53,5.2,13.55,8.21A461.12,461.12,0,0,0,43.7,134.39c16,76,50.82,128.74,100.72,152.65a85.61,85.61,0,0,0,37.41,8.66c33.19,0,68.56-19.25,104.08-57.07,30.08-32,51.3-67.49,57.75-78.83,5.83.8,11.59,1.47,17.22,1.89C342.82,195.27,284.51,293.51,211.09,314.46Zm176.16-79.91a28.28,28.28,0,0,1-9.58,21.25C357,273.4,312.34,305.92,254,317.49c57.25-34.43,100.57-102.21,121.53-140.08C381.64,188.76,387.67,207,387.25,234.55Z"/></g></g></g></svg>